<svg width="139" height="40" viewBox="0 0 139 40" fill="none" xmlns="http://www.w3.org/2000/svg">
<path d="M17.1229 2.5H26.1217L22.5096 12.5943C16.152 13.7115 11.2894 19.8625 11.2894 27.283C11.2894 30.6305 12.279 33.7197 13.9489 36.2049H2L12.9236 5.67808C13.6104 3.75863 15.2735 2.5 17.1229 2.5Z" fill="#7C3AED"/>
<path d="M31.8172 2.5H22.8184L26.4153 12.5517C32.8994 13.5452 37.8945 19.762 37.8945 27.283C37.8945 30.6305 36.9049 33.7197 35.235 36.2049H46.9401L36.0165 5.67809C35.3297 3.75863 33.6666 2.5 31.8172 2.5Z" fill="#4C1D95"/>
<path d="M15.5173 35.2334C13.9795 33.0434 13.0625 30.2829 13.0625 27.2829C13.0625 20.1655 18.2241 14.3958 24.5912 14.3958C30.9584 14.3958 36.12 20.1655 36.12 27.2829C36.12 30.2829 35.203 33.0434 33.6652 35.2334C31.1407 33.354 27.9979 32.2395 24.5912 32.2395C21.1846 32.2395 18.0418 33.354 15.5173 35.2334Z" fill="#4C1D95"/>
<path d="M66.9609 14.3555L62.3203 28.5H58.582L64.9219 11.4375H67.3008L66.9609 14.3555ZM70.8164 28.5L66.1641 14.3555L65.7891 11.4375H68.1914L74.5664 28.5H70.8164ZM70.6055 22.1484V24.9023H61.5938V22.1484H70.6055ZM82.793 24.9961C82.793 24.7539 82.7227 24.5352 82.582 24.3398C82.4414 24.1445 82.1797 23.9648 81.7969 23.8008C81.4219 23.6289 80.8789 23.4727 80.168 23.332C79.5273 23.1914 78.9297 23.0156 78.375 22.8047C77.8281 22.5859 77.3516 22.3242 76.9453 22.0195C76.5469 21.7148 76.2344 21.3555 76.0078 20.9414C75.7812 20.5195 75.668 20.0391 75.668 19.5C75.668 18.9688 75.7812 18.4688 76.0078 18C76.2422 17.5312 76.5742 17.1172 77.0039 16.7578C77.4414 16.3906 77.9727 16.1055 78.5977 15.9023C79.2305 15.6914 79.9414 15.5859 80.7305 15.5859C81.832 15.5859 82.7773 15.7617 83.5664 16.1133C84.3633 16.4648 84.9727 16.9492 85.3945 17.5664C85.8242 18.1758 86.0391 18.8711 86.0391 19.6523H82.6641C82.6641 19.3242 82.5938 19.0312 82.4531 18.7734C82.3203 18.5078 82.1094 18.3008 81.8203 18.1523C81.5391 17.9961 81.1719 17.918 80.7188 17.918C80.3438 17.918 80.0195 17.9844 79.7461 18.1172C79.4727 18.2422 79.2617 18.4141 79.1133 18.6328C78.9727 18.8438 78.9023 19.0781 78.9023 19.3359C78.9023 19.5312 78.9414 19.707 79.0195 19.8633C79.1055 20.0117 79.2422 20.1484 79.4297 20.2734C79.6172 20.3984 79.8594 20.5156 80.1562 20.625C80.4609 20.7266 80.8359 20.8203 81.2812 20.9062C82.1953 21.0938 83.0117 21.3398 83.7305 21.6445C84.4492 21.9414 85.0195 22.3477 85.4414 22.8633C85.8633 23.3711 86.0742 24.0391 86.0742 24.8672C86.0742 25.4297 85.9492 25.9453 85.6992 26.4141C85.4492 26.8828 85.0898 27.293 84.6211 27.6445C84.1523 27.9883 83.5898 28.2578 82.9336 28.4531C82.2852 28.6406 81.5547 28.7344 80.7422 28.7344C79.5625 28.7344 78.5625 28.5234 77.7422 28.1016C76.9297 27.6797 76.3125 27.1445 75.8906 26.4961C75.4766 25.8398 75.2695 25.168 75.2695 24.4805H78.4688C78.4844 24.9414 78.6016 25.3125 78.8203 25.5938C79.0469 25.875 79.332 26.0781 79.6758 26.2031C80.0273 26.3281 80.4062 26.3906 80.8125 26.3906C81.25 26.3906 81.6133 26.332 81.9023 26.2148C82.1914 26.0898 82.4102 25.9258 82.5586 25.7227C82.7148 25.5117 82.793 25.2695 82.793 24.9961ZM94.4766 15.8203V18.2109H87.0938V15.8203H94.4766ZM88.9219 12.6914H92.2969V24.6797C92.2969 25.0469 92.3438 25.3281 92.4375 25.5234C92.5391 25.7188 92.6875 25.8555 92.8828 25.9336C93.0781 26.0039 93.3242 26.0391 93.6211 26.0391C93.832 26.0391 94.0195 26.0312 94.1836 26.0156C94.3555 25.9922 94.5 25.9688 94.6172 25.9453L94.6289 28.4297C94.3398 28.5234 94.0273 28.5977 93.6914 28.6523C93.3555 28.707 92.9844 28.7344 92.5781 28.7344C91.8359 28.7344 91.1875 28.6133 90.6328 28.3711C90.0859 28.1211 89.6641 27.7227 89.3672 27.1758C89.0703 26.6289 88.9219 25.9102 88.9219 25.0195V12.6914ZM99.7734 18.5859V28.5H96.3984V15.8203H99.5742L99.7734 18.5859ZM103.594 15.7383L103.535 18.8672C103.371 18.8438 103.172 18.8242 102.938 18.8086C102.711 18.7852 102.504 18.7734 102.316 18.7734C101.84 18.7734 101.426 18.8359 101.074 18.9609C100.73 19.0781 100.441 19.2539 100.207 19.4883C99.9805 19.7227 99.8086 20.0078 99.6914 20.3438C99.582 20.6797 99.5195 21.0625 99.5039 21.4922L98.8242 21.2812C98.8242 20.4609 98.9062 19.707 99.0703 19.0195C99.2344 18.3242 99.4727 17.7188 99.7852 17.2031C100.105 16.6875 100.496 16.2891 100.957 16.0078C101.418 15.7266 101.945 15.5859 102.539 15.5859C102.727 15.5859 102.918 15.6016 103.113 15.6328C103.309 15.6562 103.469 15.6914 103.594 15.7383ZM104.297 22.2891V22.043C104.297 21.1133 104.43 20.2578 104.695 19.4766C104.961 18.6875 105.348 18.0039 105.855 17.4258C106.363 16.8477 106.988 16.3984 107.73 16.0781C108.473 15.75 109.324 15.5859 110.285 15.5859C111.246 15.5859 112.102 15.75 112.852 16.0781C113.602 16.3984 114.23 16.8477 114.738 17.4258C115.254 18.0039 115.645 18.6875 115.91 19.4766C116.176 20.2578 116.309 21.1133 116.309 22.043V22.2891C116.309 23.2109 116.176 24.0664 115.91 24.8555C115.645 25.6367 115.254 26.3203 114.738 26.9062C114.23 27.4844 113.605 27.9336 112.863 28.2539C112.121 28.5742 111.27 28.7344 110.309 28.7344C109.348 28.7344 108.492 28.5742 107.742 28.2539C107 27.9336 106.371 27.4844 105.855 26.9062C105.348 26.3203 104.961 25.6367 104.695 24.8555C104.43 24.0664 104.297 23.2109 104.297 22.2891ZM107.672 22.043V22.2891C107.672 22.8203 107.719 23.3164 107.812 23.7773C107.906 24.2383 108.055 24.6445 108.258 24.9961C108.469 25.3398 108.742 25.6094 109.078 25.8047C109.414 26 109.824 26.0977 110.309 26.0977C110.777 26.0977 111.18 26 111.516 25.8047C111.852 25.6094 112.121 25.3398 112.324 24.9961C112.527 24.6445 112.676 24.2383 112.77 23.7773C112.871 23.3164 112.922 22.8203 112.922 22.2891V22.043C112.922 21.5273 112.871 21.043 112.77 20.5898C112.676 20.1289 112.523 19.7227 112.312 19.3711C112.109 19.0117 111.84 18.7305 111.504 18.5273C111.168 18.3242 110.762 18.2227 110.285 18.2227C109.809 18.2227 109.402 18.3242 109.066 18.5273C108.738 18.7305 108.469 19.0117 108.258 19.3711C108.055 19.7227 107.906 20.1289 107.812 20.5898C107.719 21.043 107.672 21.5273 107.672 22.043ZM121.758 18.4453V28.5H118.371V15.8203H121.547L121.758 18.4453ZM121.289 21.7148H120.352C120.352 20.832 120.457 20.0195 120.668 19.2773C120.887 18.5273 121.203 17.8789 121.617 17.332C122.039 16.7773 122.559 16.3477 123.176 16.043C123.793 15.7383 124.508 15.5859 125.32 15.5859C125.883 15.5859 126.398 15.6719 126.867 15.8438C127.336 16.0078 127.738 16.2695 128.074 16.6289C128.418 16.9805 128.684 17.4414 128.871 18.0117C129.059 18.5742 129.152 19.25 129.152 20.0391V28.5H125.777V20.4141C125.777 19.8359 125.699 19.3906 125.543 19.0781C125.387 18.7656 125.164 18.5469 124.875 18.4219C124.594 18.2969 124.254 18.2344 123.855 18.2344C123.418 18.2344 123.035 18.3242 122.707 18.5039C122.387 18.6836 122.121 18.9336 121.91 19.2539C121.699 19.5664 121.543 19.9336 121.441 20.3555C121.34 20.7773 121.289 21.2305 121.289 21.7148ZM128.836 21.3281L127.629 21.4805C127.629 20.6523 127.73 19.8828 127.934 19.1719C128.145 18.4609 128.453 17.8359 128.859 17.2969C129.273 16.7578 129.785 16.3398 130.395 16.043C131.004 15.7383 131.707 15.5859 132.504 15.5859C133.113 15.5859 133.668 15.6758 134.168 15.8555C134.668 16.0273 135.094 16.3047 135.445 16.6875C135.805 17.0625 136.078 17.5547 136.266 18.1641C136.461 18.7734 136.559 19.5195 136.559 20.4023V28.5H133.172V20.4023C133.172 19.8164 133.094 19.3711 132.938 19.0664C132.789 18.7539 132.57 18.5391 132.281 18.4219C132 18.2969 131.664 18.2344 131.273 18.2344C130.867 18.2344 130.512 18.3164 130.207 18.4805C129.902 18.6367 129.648 18.8555 129.445 19.1367C129.242 19.418 129.09 19.7461 128.988 20.1211C128.887 20.4883 128.836 20.8906 128.836 21.3281Z" fill="#0F172A"/>
</svg>
