<svg width="83" height="51" viewBox="0 0 83 51" fill="none" xmlns="http://www.w3.org/2000/svg">
<g clip-path="url(#clip0_116_11059)">
<path d="M35.1441 22.3115C40.6149 22.3115 45.0498 17.8765 45.0498 12.4057C45.0498 6.93496 40.6149 2.5 35.1441 2.5C29.6733 2.5 25.2383 6.93496 25.2383 12.4057C25.2383 17.8765 29.6733 22.3115 35.1441 22.3115Z" fill="#334155"/>
<path d="M57.2886 22.3115C62.7594 22.3115 67.1943 17.8765 67.1943 12.4057C67.1943 6.93496 62.7594 2.5 57.2886 2.5C51.8178 2.5 47.3828 6.93496 47.3828 12.4057C47.3828 17.8765 51.8178 22.3115 57.2886 22.3115Z" fill="#475569"/>
<path d="M22.9056 2.5H3.10352V22.302H22.9056V2.5Z" fill="#1E293B"/>
<path d="M9.70312 39.5117H5.32031L5.29688 37.0977H8.97656C9.625 37.0977 10.1562 37.0156 10.5703 36.8516C10.9844 36.6797 11.293 36.4336 11.4961 36.1133C11.707 35.7852 11.8125 35.3867 11.8125 34.918C11.8125 34.3867 11.7109 33.957 11.5078 33.6289C11.3125 33.3008 11.0039 33.0625 10.582 32.9141C10.168 32.7656 9.63281 32.6914 8.97656 32.6914H6.53906V47H3.02344V29.9375H8.97656C9.96875 29.9375 10.8555 30.0312 11.6367 30.2188C12.4258 30.4062 13.0938 30.6914 13.6406 31.0742C14.1875 31.457 14.6055 31.9414 14.8945 32.5273C15.1836 33.1055 15.3281 33.793 15.3281 34.5898C15.3281 35.293 15.168 35.9414 14.8477 36.5352C14.5352 37.1289 14.0391 37.6133 13.3594 37.9883C12.6875 38.3633 11.8086 38.5703 10.7227 38.6094L9.70312 39.5117ZM9.55078 47H4.35938L5.73047 44.2578H9.55078C10.168 44.2578 10.6719 44.1602 11.0625 43.9648C11.4531 43.7617 11.7422 43.4883 11.9297 43.1445C12.1172 42.8008 12.2109 42.4062 12.2109 41.9609C12.2109 41.4609 12.125 41.0273 11.9531 40.6602C11.7891 40.293 11.5234 40.0117 11.1562 39.8164C10.7891 39.6133 10.3047 39.5117 9.70312 39.5117H6.31641L6.33984 37.0977H10.5586L11.3672 38.0469C12.4062 38.0312 13.2422 38.2148 13.875 38.5977C14.5156 38.9727 14.9805 39.4609 15.2695 40.0625C15.5664 40.6641 15.7148 41.3086 15.7148 41.9961C15.7148 43.0898 15.4766 44.0117 15 44.7617C14.5234 45.5039 13.8242 46.0625 12.9023 46.4375C11.9883 46.8125 10.8711 47 9.55078 47ZM25.6406 43.9648V34.3203H29.0156V47H25.8398L25.6406 43.9648ZM26.0156 41.3633L27.0117 41.3398C27.0117 42.1836 26.9141 42.9688 26.7188 43.6953C26.5234 44.4141 26.2305 45.0391 25.8398 45.5703C25.4492 46.0938 24.957 46.5039 24.3633 46.8008C23.7695 47.0898 23.0703 47.2344 22.2656 47.2344C21.6484 47.2344 21.0781 47.1484 20.5547 46.9766C20.0391 46.7969 19.5938 46.5195 19.2188 46.1445C18.8516 45.7617 18.5625 45.2734 18.3516 44.6797C18.1484 44.0781 18.0469 43.3555 18.0469 42.5117V34.3203H21.4219V42.5352C21.4219 42.9102 21.4648 43.2266 21.5508 43.4844C21.6445 43.7422 21.7734 43.9531 21.9375 44.1172C22.1016 44.2812 22.293 44.3984 22.5117 44.4688C22.7383 44.5391 22.9883 44.5742 23.2617 44.5742C23.957 44.5742 24.5039 44.4336 24.9023 44.1523C25.3086 43.8711 25.5938 43.4883 25.7578 43.0039C25.9297 42.5117 26.0156 41.9648 26.0156 41.3633ZM35.1562 34.3203V47H31.7695V34.3203H35.1562ZM31.5586 31.0156C31.5586 30.5234 31.7305 30.1172 32.0742 29.7969C32.418 29.4766 32.8789 29.3164 33.457 29.3164C34.0273 29.3164 34.4844 29.4766 34.8281 29.7969C35.1797 30.1172 35.3555 30.5234 35.3555 31.0156C35.3555 31.5078 35.1797 31.9141 34.8281 32.2344C34.4844 32.5547 34.0273 32.7148 33.457 32.7148C32.8789 32.7148 32.418 32.5547 32.0742 32.2344C31.7305 31.9141 31.5586 31.5078 31.5586 31.0156ZM41.5078 29V47H38.1211V29H41.5078ZM51.7852 44.2344V29H55.1836V47H52.125L51.7852 44.2344ZM43.7695 40.8125V40.5664C43.7695 39.5977 43.8789 38.7188 44.0977 37.9297C44.3164 37.1328 44.6367 36.4492 45.0586 35.8789C45.4805 35.3086 46 34.8672 46.6172 34.5547C47.2344 34.2422 47.9375 34.0859 48.7266 34.0859C49.4688 34.0859 50.1172 34.2422 50.6719 34.5547C51.2344 34.8672 51.7109 35.3125 52.1016 35.8906C52.5 36.4609 52.8203 37.1367 53.0625 37.918C53.3047 38.6914 53.4805 39.5391 53.5898 40.4609V41C53.4805 41.8828 53.3047 42.7031 53.0625 43.4609C52.8203 44.2188 52.5 44.8828 52.1016 45.4531C51.7109 46.0156 51.2344 46.4531 50.6719 46.7656C50.1094 47.0781 49.4531 47.2344 48.7031 47.2344C47.9141 47.2344 47.2109 47.0742 46.5938 46.7539C45.9844 46.4336 45.4688 45.9844 45.0469 45.4062C44.6328 44.8281 44.3164 44.1484 44.0977 43.3672C43.8789 42.5859 43.7695 41.7344 43.7695 40.8125ZM47.1445 40.5664V40.8125C47.1445 41.3359 47.1836 41.8242 47.2617 42.2773C47.3477 42.7305 47.4844 43.1328 47.6719 43.4844C47.8672 43.8281 48.1172 44.0977 48.4219 44.293C48.7344 44.4805 49.1133 44.5742 49.5586 44.5742C50.1367 44.5742 50.6133 44.4453 50.9883 44.1875C51.3633 43.9219 51.6484 43.5586 51.8438 43.0977C52.0469 42.6367 52.1641 42.1055 52.1953 41.5039V39.9688C52.1719 39.4766 52.1016 39.0352 51.9844 38.6445C51.875 38.2461 51.7109 37.9062 51.4922 37.625C51.2812 37.3438 51.0156 37.125 50.6953 36.9688C50.3828 36.8125 50.0117 36.7344 49.582 36.7344C49.1445 36.7344 48.7695 36.8359 48.457 37.0391C48.1445 37.2344 47.8906 37.5039 47.6953 37.8477C47.5078 38.1914 47.3672 38.5977 47.2734 39.0664C47.1875 39.5273 47.1445 40.0273 47.1445 40.5664ZM64.6641 44.1406V38.4922C64.6641 38.0859 64.5977 37.7383 64.4648 37.4492C64.332 37.1523 64.125 36.9219 63.8438 36.7578C63.5703 36.5938 63.2148 36.5117 62.7773 36.5117C62.4023 36.5117 62.0781 36.5781 61.8047 36.7109C61.5312 36.8359 61.3203 37.0195 61.1719 37.2617C61.0234 37.4961 60.9492 37.7734 60.9492 38.0938H57.5742C57.5742 37.5547 57.6992 37.043 57.9492 36.5586C58.1992 36.0742 58.5625 35.6484 59.0391 35.2812C59.5156 34.9062 60.082 34.6133 60.7383 34.4023C61.4023 34.1914 62.1445 34.0859 62.9648 34.0859C63.9492 34.0859 64.8242 34.25 65.5898 34.5781C66.3555 34.9062 66.957 35.3984 67.3945 36.0547C67.8398 36.7109 68.0625 37.5312 68.0625 38.5156V43.9414C68.0625 44.6367 68.1055 45.207 68.1914 45.6523C68.2773 46.0898 68.4023 46.4727 68.5664 46.8008V47H65.1562C64.9922 46.6562 64.8672 46.2266 64.7812 45.7109C64.7031 45.1875 64.6641 44.6641 64.6641 44.1406ZM65.1094 39.2773L65.1328 41.1875H63.2461C62.8008 41.1875 62.4141 41.2383 62.0859 41.3398C61.7578 41.4414 61.4883 41.5859 61.2773 41.7734C61.0664 41.9531 60.9102 42.1641 60.8086 42.4062C60.7148 42.6484 60.668 42.9141 60.668 43.2031C60.668 43.4922 60.7344 43.7539 60.8672 43.9883C61 44.2148 61.1914 44.3945 61.4414 44.5273C61.6914 44.6523 61.9844 44.7148 62.3203 44.7148C62.8281 44.7148 63.2695 44.6133 63.6445 44.4102C64.0195 44.207 64.3086 43.957 64.5117 43.6602C64.7227 43.3633 64.832 43.082 64.8398 42.8164L65.7305 44.2461C65.6055 44.5664 65.4336 44.8984 65.2148 45.2422C65.0039 45.5859 64.7344 45.9102 64.4062 46.2148C64.0781 46.5117 63.6836 46.7578 63.2227 46.9531C62.7617 47.1406 62.2148 47.2344 61.582 47.2344C60.7773 47.2344 60.0469 47.0742 59.3906 46.7539C58.7422 46.4258 58.2266 45.9766 57.8438 45.4062C57.4688 44.8281 57.2812 44.1719 57.2812 43.4375C57.2812 42.7734 57.4062 42.1836 57.6562 41.668C57.9062 41.1523 58.2734 40.7188 58.7578 40.3672C59.25 40.0078 59.8633 39.7383 60.5977 39.5586C61.332 39.3711 62.1836 39.2773 63.1523 39.2773H65.1094ZM77.5078 44.1406V38.4922C77.5078 38.0859 77.4414 37.7383 77.3086 37.4492C77.1758 37.1523 76.9688 36.9219 76.6875 36.7578C76.4141 36.5938 76.0586 36.5117 75.6211 36.5117C75.2461 36.5117 74.9219 36.5781 74.6484 36.7109C74.375 36.8359 74.1641 37.0195 74.0156 37.2617C73.8672 37.4961 73.793 37.7734 73.793 38.0938H70.418C70.418 37.5547 70.543 37.043 70.793 36.5586C71.043 36.0742 71.4062 35.6484 71.8828 35.2812C72.3594 34.9062 72.9258 34.6133 73.582 34.4023C74.2461 34.1914 74.9883 34.0859 75.8086 34.0859C76.793 34.0859 77.668 34.25 78.4336 34.5781C79.1992 34.9062 79.8008 35.3984 80.2383 36.0547C80.6836 36.7109 80.9062 37.5312 80.9062 38.5156V43.9414C80.9062 44.6367 80.9492 45.207 81.0352 45.6523C81.1211 46.0898 81.2461 46.4727 81.4102 46.8008V47H78C77.8359 46.6562 77.7109 46.2266 77.625 45.7109C77.5469 45.1875 77.5078 44.6641 77.5078 44.1406ZM77.9531 39.2773L77.9766 41.1875H76.0898C75.6445 41.1875 75.2578 41.2383 74.9297 41.3398C74.6016 41.4414 74.332 41.5859 74.1211 41.7734C73.9102 41.9531 73.7539 42.1641 73.6523 42.4062C73.5586 42.6484 73.5117 42.9141 73.5117 43.2031C73.5117 43.4922 73.5781 43.7539 73.7109 43.9883C73.8438 44.2148 74.0352 44.3945 74.2852 44.5273C74.5352 44.6523 74.8281 44.7148 75.1641 44.7148C75.6719 44.7148 76.1133 44.6133 76.4883 44.4102C76.8633 44.207 77.1523 43.957 77.3555 43.6602C77.5664 43.3633 77.6758 43.082 77.6836 42.8164L78.5742 44.2461C78.4492 44.5664 78.2773 44.8984 78.0586 45.2422C77.8477 45.5859 77.5781 45.9102 77.25 46.2148C76.9219 46.5117 76.5273 46.7578 76.0664 46.9531C75.6055 47.1406 75.0586 47.2344 74.4258 47.2344C73.6211 47.2344 72.8906 47.0742 72.2344 46.7539C71.5859 46.4258 71.0703 45.9766 70.6875 45.4062C70.3125 44.8281 70.125 44.1719 70.125 43.4375C70.125 42.7734 70.25 42.1836 70.5 41.668C70.75 41.1523 71.1172 40.7188 71.6016 40.3672C72.0938 40.0078 72.707 39.7383 73.4414 39.5586C74.1758 39.3711 75.0273 39.2773 75.9961 39.2773H77.9531Z" fill="#0F172A"/>
</g>
<defs>
<clipPath id="clip0_116_11059">
<rect width="82" height="51" fill="white" transform="translate(0.5)"/>
</clipPath>
</defs>
</svg>
