<svg width="117" height="32" viewBox="0 0 117 32" fill="none" xmlns="http://www.w3.org/2000/svg">
<g clip-path="url(#clip0_116_11064)">
<path d="M39.2812 15.5127C39.2812 11.3985 37.6468 7.45275 34.7376 4.54356C31.8284 1.63437 27.8827 5.39515e-07 23.7685 0C19.6543 -5.39514e-07 15.7086 1.63437 12.7994 4.54356C9.89023 7.45275 8.25586 11.3985 8.25586 15.5127H13.1036C14.71 15.5127 15.9628 14.1665 16.5512 12.6717C16.9375 11.6903 17.5237 10.7884 18.2839 10.0281C19.7385 8.57352 21.7114 7.75634 23.7685 7.75634C25.8256 7.75634 27.7985 8.57352 29.2531 10.0281C30.7077 11.4827 31.5248 13.4556 31.5248 15.5127H39.2812Z" fill="#0D9488"/>
<path d="M30.3444 21.4491C31.124 19.567 31.5253 17.5498 31.5253 15.5127H39.2808C39.2808 24.0801 32.3355 31.0253 23.7681 31.0253C22.4264 31.0253 21.1244 30.855 19.8828 30.5348C20.5853 30.3538 21.2758 30.1233 21.949 29.8445C23.8311 29.0649 25.5412 27.9223 26.9817 26.4818C28.4222 25.0413 29.5649 23.3312 30.3444 21.4491Z" fill="#FDBA74"/>
<path d="M0.5 15.5126C0.5 17.5498 0.901247 19.567 1.68083 21.4491C2.46042 23.3312 3.60307 25.0413 5.04356 26.4818C6.48404 27.9222 8.19415 29.0649 10.0762 29.8445C11.9583 30.6241 13.9755 31.0253 16.0127 31.0253C18.0498 31.0253 20.067 30.6241 21.9491 29.8445C23.8312 29.0649 25.5413 27.9222 26.9818 26.4818C28.4223 25.0413 29.5649 23.3312 30.3445 21.4491C31.1241 19.567 31.5254 17.5498 31.5254 15.5126H26.6776C25.0712 15.5126 23.8184 16.8588 23.23 18.3535C23.2133 18.3961 23.1961 18.4385 23.1786 18.4809C22.7888 19.4219 22.2175 20.277 21.4972 20.9972C20.777 21.7174 19.9219 22.2888 18.9809 22.6786C18.0399 23.0684 17.0313 23.269 16.0127 23.269C14.9941 23.269 13.9855 23.0684 13.0445 22.6786C12.1034 22.2888 11.2484 21.7174 10.5281 20.9972C9.80787 20.277 9.23655 19.4219 8.84676 18.4809C8.45696 17.5398 8.25634 16.5312 8.25634 15.5126H0.5Z" fill="#FB923C"/>
<path d="M0.501953 15.5127C0.501953 6.94524 7.4472 0 16.0146 0C17.356 0 18.6576 0.170246 19.8991 0.490323C17.2352 1.17657 14.7778 2.56535 12.7995 4.54357C9.89029 7.45273 8.25594 11.3985 8.25594 15.5127H0.501953Z" fill="#2DD4BF"/>
<path d="M58.0508 21.5977C58.4648 21.5977 58.832 21.5195 59.1523 21.3633C59.4727 21.1992 59.7227 20.9727 59.9023 20.6836C60.0898 20.3867 60.1875 20.0391 60.1953 19.6406H63.3711C63.3633 20.5312 63.125 21.3242 62.6562 22.0195C62.1875 22.707 61.5586 23.25 60.7695 23.6484C59.9805 24.0391 59.0977 24.2344 58.1211 24.2344C57.1367 24.2344 56.2773 24.0703 55.543 23.7422C54.8164 23.4141 54.2109 22.9609 53.7266 22.3828C53.2422 21.7969 52.8789 21.1172 52.6367 20.3438C52.3945 19.5625 52.2734 18.7266 52.2734 17.8359V17.4961C52.2734 16.5977 52.3945 15.7617 52.6367 14.9883C52.8789 14.207 53.2422 13.5273 53.7266 12.9492C54.2109 12.3633 54.8164 11.9062 55.543 11.5781C56.2695 11.25 57.1211 11.0859 58.0977 11.0859C59.1367 11.0859 60.0469 11.2852 60.8281 11.6836C61.6172 12.082 62.2344 12.6523 62.6797 13.3945C63.1328 14.1289 63.3633 15 63.3711 16.0078H60.1953C60.1875 15.5859 60.0977 15.2031 59.9258 14.8594C59.7617 14.5156 59.5195 14.2422 59.1992 14.0391C58.8867 13.8281 58.5 13.7227 58.0391 13.7227C57.5469 13.7227 57.1445 13.8281 56.832 14.0391C56.5195 14.2422 56.2773 14.5234 56.1055 14.8828C55.9336 15.2344 55.8125 15.6367 55.7422 16.0898C55.6797 16.5352 55.6484 17.0039 55.6484 17.4961V17.8359C55.6484 18.3281 55.6797 18.8008 55.7422 19.2539C55.8047 19.707 55.9219 20.1094 56.0938 20.4609C56.2734 20.8125 56.5195 21.0898 56.832 21.293C57.1445 21.4961 57.5508 21.5977 58.0508 21.5977ZM68.8906 11.3203V24H65.5039V11.3203H68.8906ZM65.293 8.01562C65.293 7.52344 65.4648 7.11719 65.8086 6.79688C66.1523 6.47656 66.6133 6.31641 67.1914 6.31641C67.7617 6.31641 68.2188 6.47656 68.5625 6.79688C68.9141 7.11719 69.0898 7.52344 69.0898 8.01562C69.0898 8.50781 68.9141 8.91406 68.5625 9.23438C68.2188 9.55469 67.7617 9.71484 67.1914 9.71484C66.6133 9.71484 66.1523 9.55469 65.8086 9.23438C65.4648 8.91406 65.293 8.50781 65.293 8.01562ZM76.918 21.5977C77.332 21.5977 77.6992 21.5195 78.0195 21.3633C78.3398 21.1992 78.5898 20.9727 78.7695 20.6836C78.957 20.3867 79.0547 20.0391 79.0625 19.6406H82.2383C82.2305 20.5312 81.9922 21.3242 81.5234 22.0195C81.0547 22.707 80.4258 23.25 79.6367 23.6484C78.8477 24.0391 77.9648 24.2344 76.9883 24.2344C76.0039 24.2344 75.1445 24.0703 74.4102 23.7422C73.6836 23.4141 73.0781 22.9609 72.5938 22.3828C72.1094 21.7969 71.7461 21.1172 71.5039 20.3438C71.2617 19.5625 71.1406 18.7266 71.1406 17.8359V17.4961C71.1406 16.5977 71.2617 15.7617 71.5039 14.9883C71.7461 14.207 72.1094 13.5273 72.5938 12.9492C73.0781 12.3633 73.6836 11.9062 74.4102 11.5781C75.1367 11.25 75.9883 11.0859 76.9648 11.0859C78.0039 11.0859 78.9141 11.2852 79.6953 11.6836C80.4844 12.082 81.1016 12.6523 81.5469 13.3945C82 14.1289 82.2305 15 82.2383 16.0078H79.0625C79.0547 15.5859 78.9648 15.2031 78.793 14.8594C78.6289 14.5156 78.3867 14.2422 78.0664 14.0391C77.7539 13.8281 77.3672 13.7227 76.9062 13.7227C76.4141 13.7227 76.0117 13.8281 75.6992 14.0391C75.3867 14.2422 75.1445 14.5234 74.9727 14.8828C74.8008 15.2344 74.6797 15.6367 74.6094 16.0898C74.5469 16.5352 74.5156 17.0039 74.5156 17.4961V17.8359C74.5156 18.3281 74.5469 18.8008 74.6094 19.2539C74.6719 19.707 74.7891 20.1094 74.9609 20.4609C75.1406 20.8125 75.3867 21.0898 75.6992 21.293C76.0117 21.4961 76.418 21.5977 76.918 21.5977ZM87.7578 11.3203V24H84.3711V11.3203H87.7578ZM84.1602 8.01562C84.1602 7.52344 84.332 7.11719 84.6758 6.79688C85.0195 6.47656 85.4805 6.31641 86.0586 6.31641C86.6289 6.31641 87.0859 6.47656 87.4297 6.79688C87.7812 7.11719 87.957 7.52344 87.957 8.01562C87.957 8.50781 87.7812 8.91406 87.4297 9.23438C87.0859 9.55469 86.6289 9.71484 86.0586 9.71484C85.4805 9.71484 85.0195 9.55469 84.6758 9.23438C84.332 8.91406 84.1602 8.50781 84.1602 8.01562ZM90.0078 17.7891V17.543C90.0078 16.6133 90.1406 15.7578 90.4062 14.9766C90.6719 14.1875 91.0586 13.5039 91.5664 12.9258C92.0742 12.3477 92.6992 11.8984 93.4414 11.5781C94.1836 11.25 95.0352 11.0859 95.9961 11.0859C96.957 11.0859 97.8125 11.25 98.5625 11.5781C99.3125 11.8984 99.9414 12.3477 100.449 12.9258C100.965 13.5039 101.355 14.1875 101.621 14.9766C101.887 15.7578 102.02 16.6133 102.02 17.543V17.7891C102.02 18.7109 101.887 19.5664 101.621 20.3555C101.355 21.1367 100.965 21.8203 100.449 22.4062C99.9414 22.9844 99.3164 23.4336 98.5742 23.7539C97.832 24.0742 96.9805 24.2344 96.0195 24.2344C95.0586 24.2344 94.2031 24.0742 93.4531 23.7539C92.7109 23.4336 92.082 22.9844 91.5664 22.4062C91.0586 21.8203 90.6719 21.1367 90.4062 20.3555C90.1406 19.5664 90.0078 18.7109 90.0078 17.7891ZM93.3828 17.543V17.7891C93.3828 18.3203 93.4297 18.8164 93.5234 19.2773C93.6172 19.7383 93.7656 20.1445 93.9688 20.4961C94.1797 20.8398 94.4531 21.1094 94.7891 21.3047C95.125 21.5 95.5352 21.5977 96.0195 21.5977C96.4883 21.5977 96.8906 21.5 97.2266 21.3047C97.5625 21.1094 97.832 20.8398 98.0352 20.4961C98.2383 20.1445 98.3867 19.7383 98.4805 19.2773C98.582 18.8164 98.6328 18.3203 98.6328 17.7891V17.543C98.6328 17.0273 98.582 16.543 98.4805 16.0898C98.3867 15.6289 98.2344 15.2227 98.0234 14.8711C97.8203 14.5117 97.5508 14.2305 97.2148 14.0273C96.8789 13.8242 96.4727 13.7227 95.9961 13.7227C95.5195 13.7227 95.1133 13.8242 94.7773 14.0273C94.4492 14.2305 94.1797 14.5117 93.9688 14.8711C93.7656 15.2227 93.6172 15.6289 93.5234 16.0898C93.4297 16.543 93.3828 17.0273 93.3828 17.543Z" fill="#0F172A"/>
</g>
<defs>
<clipPath id="clip0_116_11064">
<rect width="116" height="32" fill="white" transform="translate(0.5)"/>
</clipPath>
</defs>
</svg>
