<svg width="100" height="41" viewBox="0 0 100 41" fill="none" xmlns="http://www.w3.org/2000/svg">
<g clip-path="url(#clip0_116_10974)">
<path d="M0.5 20.5C0.5 11.0719 0.5 6.35786 3.42893 3.42893C6.35786 0.5 11.0719 0.5 20.5 0.5C29.9281 0.5 34.6421 0.5 37.5711 3.42893C40.5 6.35786 40.5 11.0719 40.5 20.5C40.5 29.9281 40.5 34.6421 37.5711 37.5711C34.6421 40.5 29.9281 40.5 20.5 40.5C11.0719 40.5 6.35786 40.5 3.42893 37.5711C0.5 34.6421 0.5 29.9281 0.5 20.5Z" fill="#0C4A6E"/>
<path d="M24.5007 26.5C25.053 26.5 25.5108 26.9521 25.4011 27.4934C25.2072 28.4494 24.7362 29.3355 24.0362 30.0355C23.0986 30.9732 21.8268 31.5 20.5007 31.5C19.1746 31.5 17.9029 30.9732 16.9652 30.0355C16.2652 29.3355 15.7942 28.4494 15.6004 27.4934C15.4906 26.9521 15.9484 26.5 16.5007 26.5H24.5007Z" fill="#67E8F9"/>
<path d="M26.6027 18.2765C26.0692 18.4194 25.7425 18.9775 26.013 19.459C26.2977 19.9658 26.6915 20.4081 27.1706 20.7514C27.9228 21.2904 28.8386 21.552 29.7621 21.4914C30.6855 21.4309 31.5594 21.0521 32.2348 20.4195C32.9103 19.7869 33.3454 18.9396 33.4662 18.0221C33.587 17.1046 33.386 16.1736 32.8973 15.3877C32.4086 14.6019 31.6625 14.0098 30.7862 13.7123C29.9099 13.4148 28.9576 13.4304 28.0915 13.7564C27.5399 13.964 27.0451 14.2893 26.6389 14.7051C26.253 15.1002 26.4241 15.7239 26.9024 16L27.4097 16.2929C28.1812 16.7384 28.0291 17.8943 27.1685 18.1249L26.6027 18.2765Z" fill="#67E8F9"/>
<path d="M14.3977 18.2765C14.9312 18.4194 15.2579 18.9775 14.9874 19.459C14.7027 19.9658 14.3089 20.4081 13.8299 20.7514C13.0777 21.2904 12.1618 21.552 11.2384 21.4914C10.315 21.4309 9.44107 21.0521 8.76564 20.4195C8.09021 19.7869 7.65502 18.9396 7.53423 18.0221C7.41344 17.1046 7.61451 16.1736 8.1032 15.3877C8.59188 14.6019 9.33794 14.0098 10.2142 13.7123C11.0905 13.4148 12.0429 13.4304 12.909 13.7564C13.4605 13.964 13.9554 14.2893 14.3616 14.7051C14.7475 15.1002 14.5763 15.7239 14.098 16L13.5907 16.2929C12.8192 16.7384 12.9714 17.8943 13.8319 18.1249L14.3977 18.2765Z" fill="#67E8F9"/>
<path d="M57.6055 10.5V28.5H54.2305V10.5H57.6055ZM57.125 21.7148H56.1992C56.207 20.832 56.3242 20.0195 56.5508 19.2773C56.7773 18.5273 57.1016 17.8789 57.5234 17.332C57.9453 16.7773 58.4492 16.3477 59.0352 16.043C59.6289 15.7383 60.2852 15.5859 61.0039 15.5859C61.6289 15.5859 62.1953 15.6758 62.7031 15.8555C63.2188 16.0273 63.6602 16.3086 64.0273 16.6992C64.4023 17.082 64.6914 17.5859 64.8945 18.2109C65.0977 18.8359 65.1992 19.5938 65.1992 20.4844V28.5H61.8008V20.4609C61.8008 19.8984 61.7188 19.457 61.5547 19.1367C61.3984 18.8086 61.168 18.5781 60.8633 18.4453C60.5664 18.3047 60.1992 18.2344 59.7617 18.2344C59.2773 18.2344 58.8633 18.3242 58.5195 18.5039C58.1836 18.6836 57.9141 18.9336 57.7109 19.2539C57.5078 19.5664 57.3594 19.9336 57.2656 20.3555C57.1719 20.7773 57.125 21.2305 57.125 21.7148ZM74.6094 25.6406V19.9922C74.6094 19.5859 74.543 19.2383 74.4102 18.9492C74.2773 18.6523 74.0703 18.4219 73.7891 18.2578C73.5156 18.0938 73.1602 18.0117 72.7227 18.0117C72.3477 18.0117 72.0234 18.0781 71.75 18.2109C71.4766 18.3359 71.2656 18.5195 71.1172 18.7617C70.9688 18.9961 70.8945 19.2734 70.8945 19.5938H67.5195C67.5195 19.0547 67.6445 18.543 67.8945 18.0586C68.1445 17.5742 68.5078 17.1484 68.9844 16.7812C69.4609 16.4062 70.0273 16.1133 70.6836 15.9023C71.3477 15.6914 72.0898 15.5859 72.9102 15.5859C73.8945 15.5859 74.7695 15.75 75.5352 16.0781C76.3008 16.4062 76.9023 16.8984 77.3398 17.5547C77.7852 18.2109 78.0078 19.0312 78.0078 20.0156V25.4414C78.0078 26.1367 78.0508 26.707 78.1367 27.1523C78.2227 27.5898 78.3477 27.9727 78.5117 28.3008V28.5H75.1016C74.9375 28.1562 74.8125 27.7266 74.7266 27.2109C74.6484 26.6875 74.6094 26.1641 74.6094 25.6406ZM75.0547 20.7773L75.0781 22.6875H73.1914C72.7461 22.6875 72.3594 22.7383 72.0312 22.8398C71.7031 22.9414 71.4336 23.0859 71.2227 23.2734C71.0117 23.4531 70.8555 23.6641 70.7539 23.9062C70.6602 24.1484 70.6133 24.4141 70.6133 24.7031C70.6133 24.9922 70.6797 25.2539 70.8125 25.4883C70.9453 25.7148 71.1367 25.8945 71.3867 26.0273C71.6367 26.1523 71.9297 26.2148 72.2656 26.2148C72.7734 26.2148 73.2148 26.1133 73.5898 25.9102C73.9648 25.707 74.2539 25.457 74.457 25.1602C74.668 24.8633 74.7773 24.582 74.7852 24.3164L75.6758 25.7461C75.5508 26.0664 75.3789 26.3984 75.1602 26.7422C74.9492 27.0859 74.6797 27.4102 74.3516 27.7148C74.0234 28.0117 73.6289 28.2578 73.168 28.4531C72.707 28.6406 72.1602 28.7344 71.5273 28.7344C70.7227 28.7344 69.9922 28.5742 69.3359 28.2539C68.6875 27.9258 68.1719 27.4766 67.7891 26.9062C67.4141 26.3281 67.2266 25.6719 67.2266 24.9375C67.2266 24.2734 67.3516 23.6836 67.6016 23.168C67.8516 22.6523 68.2188 22.2188 68.7031 21.8672C69.1953 21.5078 69.8086 21.2383 70.543 21.0586C71.2773 20.8711 72.1289 20.7773 73.0977 20.7773H75.0547ZM83.9844 18.2578V33.375H80.6094V15.8203H83.7383L83.9844 18.2578ZM92.0117 22.0195V22.2656C92.0117 23.1875 91.9023 24.043 91.6836 24.832C91.4727 25.6211 91.1602 26.3086 90.7461 26.8945C90.332 27.4727 89.8164 27.9258 89.1992 28.2539C88.5898 28.5742 87.8867 28.7344 87.0898 28.7344C86.3164 28.7344 85.6445 28.5781 85.0742 28.2656C84.5039 27.9531 84.0234 27.5156 83.6328 26.9531C83.25 26.3828 82.9414 25.7227 82.707 24.9727C82.4727 24.2227 82.293 23.418 82.168 22.5586V21.9141C82.293 20.9922 82.4727 20.1484 82.707 19.3828C82.9414 18.6094 83.25 17.9414 83.6328 17.3789C84.0234 16.8086 84.5 16.3672 85.0625 16.0547C85.6328 15.7422 86.3008 15.5859 87.0664 15.5859C87.8711 15.5859 88.5781 15.7383 89.1875 16.043C89.8047 16.3477 90.3203 16.7852 90.7344 17.3555C91.1562 17.9258 91.4727 18.6055 91.6836 19.3945C91.9023 20.1836 92.0117 21.0586 92.0117 22.0195ZM88.625 22.2656V22.0195C88.625 21.4805 88.5781 20.9844 88.4844 20.5312C88.3984 20.0703 88.2578 19.668 88.0625 19.3242C87.875 18.9805 87.625 18.7148 87.3125 18.5273C87.0078 18.332 86.6367 18.2344 86.1992 18.2344C85.7383 18.2344 85.3438 18.3086 85.0156 18.457C84.6953 18.6055 84.4336 18.8203 84.2305 19.1016C84.0273 19.3828 83.875 19.7188 83.7734 20.1094C83.6719 20.5 83.6094 20.9414 83.5859 21.4336V23.0625C83.625 23.6406 83.7344 24.1602 83.9141 24.6211C84.0938 25.0742 84.3711 25.4336 84.7461 25.6992C85.1211 25.9648 85.6133 26.0977 86.2227 26.0977C86.668 26.0977 87.043 26 87.3477 25.8047C87.6523 25.6016 87.8984 25.3242 88.0859 24.9727C88.2812 24.6211 88.418 24.2148 88.4961 23.7539C88.582 23.293 88.625 22.7969 88.625 22.2656ZM97.6719 15.8203V28.5H94.2852V15.8203H97.6719ZM94.0742 12.5156C94.0742 12.0234 94.2461 11.6172 94.5898 11.2969C94.9336 10.9766 95.3945 10.8164 95.9727 10.8164C96.543 10.8164 97 10.9766 97.3438 11.2969C97.6953 11.6172 97.8711 12.0234 97.8711 12.5156C97.8711 13.0078 97.6953 13.4141 97.3438 13.7344C97 14.0547 96.543 14.2148 95.9727 14.2148C95.3945 14.2148 94.9336 14.0547 94.5898 13.7344C94.2461 13.4141 94.0742 13.0078 94.0742 12.5156Z" fill="#0F172A"/>
</g>
<defs>
<clipPath id="clip0_116_10974">
<rect width="99" height="40" fill="white" transform="translate(0.5 0.5)"/>
</clipPath>
</defs>
</svg>
