<svg width="71" height="45" viewBox="0 0 71 45" fill="none" xmlns="http://www.w3.org/2000/svg">
<g clip-path="url(#clip0_116_10972)">
<path d="M66.0276 5.90853C66.0276 5.95983 66.0276 6.02396 66.0145 6.06244C65.9489 6.56265 65.9489 7.06286 65.9882 7.5759C66.0145 7.70416 66.0407 7.83242 66.1457 7.93503C66.3162 8.12741 66.5785 8.08894 66.6835 7.85807C66.736 7.74264 66.736 7.6272 66.7097 7.51177C66.5785 7.02438 66.5523 6.51135 66.5392 6.01113C66.5392 5.98548 66.5392 5.947 66.5392 5.90853C66.6835 5.8957 66.8147 5.88287 66.9327 5.88287C67.0246 5.87005 67.1033 5.85722 67.1689 5.81874C67.3656 5.71614 67.3656 5.4981 67.1557 5.39549C67.077 5.35701 66.9721 5.34418 66.8803 5.34418C66.5523 5.35701 66.2244 5.35701 65.8964 5.35701C65.7784 5.35701 65.6603 5.36984 65.5422 5.38266C65.4766 5.39549 65.3979 5.39549 65.3455 5.43397C65.2536 5.47244 65.2012 5.53657 65.2012 5.62635C65.2143 5.71614 65.2536 5.76744 65.3455 5.80592C65.3979 5.8444 65.4635 5.85722 65.5291 5.85722C65.6865 5.87005 65.8571 5.8957 66.0276 5.90853ZM69.635 6.49852C69.635 6.51135 69.6481 6.52417 69.6481 6.52417C69.7006 6.87047 69.7531 7.20395 69.7924 7.53742C69.8056 7.65285 69.8187 7.75546 69.8974 7.84524C70.0679 8.06328 70.3303 8.03763 70.4483 7.80677C70.5008 7.69133 70.5139 7.5759 70.4877 7.44764C70.409 7.06286 70.3696 6.67808 70.2909 6.30613C70.2384 6.07526 70.1729 5.85722 70.1073 5.65201C70.0679 5.52375 69.9761 5.43396 69.8187 5.42114C69.6613 5.39549 69.5432 5.47244 69.4776 5.58788C69.3989 5.69048 69.3333 5.79309 69.2808 5.90853C69.189 6.11374 69.1103 6.31896 69.0054 6.51135C68.9922 6.56265 68.9791 6.60113 68.9529 6.6396C68.9398 6.61395 68.9267 6.60113 68.9267 6.60113C68.7561 6.28048 68.5987 5.95983 68.4282 5.65201C68.4019 5.62635 68.3888 5.6007 68.3757 5.57505C68.297 5.45962 68.2052 5.39549 68.0609 5.39549C67.9297 5.40831 67.8247 5.48527 67.7592 5.6007C67.7329 5.65201 67.7329 5.69048 67.7198 5.74179C67.6673 6.15222 67.6017 6.56265 67.5493 6.97308C67.523 7.20395 67.5099 7.43481 67.5099 7.66568C67.4968 7.71698 67.5099 7.78111 67.5361 7.83242C67.5624 7.93502 67.6411 7.99916 67.746 8.01198C67.8772 8.02481 67.969 7.98633 68.0084 7.88372C68.0477 7.80677 68.0609 7.74264 68.074 7.67851C68.1265 7.44764 68.1658 7.2296 68.2052 7.01156C68.2314 6.8833 68.2445 6.78069 68.2839 6.6396C68.3101 6.69091 68.3363 6.72939 68.3626 6.76786C68.4806 6.92178 68.5987 7.07569 68.743 7.20395C68.8873 7.30655 69.0054 7.29373 69.1234 7.17829C69.1497 7.15264 69.1628 7.13982 69.189 7.11416C69.3071 6.9346 69.4514 6.75504 69.5694 6.57547C69.5957 6.54982 69.6088 6.52417 69.635 6.49852Z" fill="#4C1D95"/>
<path d="M39.4086 6.16047C39.3174 6.40422 39.3 6.57983 39.3421 6.72579C39.3886 6.92427 39.5093 6.98925 39.6731 6.93877C41.2139 6.56624 44.5926 7.62364 45.8435 7.91835C46.1385 7.98023 46.3785 7.60788 46.1772 7.27404C45.8834 6.95074 42.5062 5.56657 41.2176 5.4911C40.7125 5.46319 39.8095 5.33655 39.4086 6.16047Z" fill="#4C1D95"/>
<path d="M52.6135 1.67983C52.7777 1.7725 52.8695 1.8609 52.9148 1.95967C52.9823 2.08923 52.9467 2.17887 52.8333 2.22461C51.8148 2.71063 50.4595 4.80304 49.9124 5.52469C49.7798 5.6907 49.4739 5.59423 49.4277 5.32123C49.4372 5.01255 50.6386 2.74182 51.3091 2.12335C51.5726 1.88188 52.0079 1.40809 52.6135 1.67983Z" fill="#4C1D95"/>
<path d="M44.5017 0.649796C44.699 0.504419 44.904 0.453474 45.0087 0.547951C46.5454 1.8329 47.3603 3.86773 47.8649 5.73057C47.8839 5.77397 47.8851 5.83625 47.8699 5.90122C47.8636 5.95675 47.8221 6.01541 47.7562 6.0608C47.6858 6.11091 47.6252 6.12617 47.5967 6.08299C46.9232 5.18732 43.0765 1.70242 44.5017 0.649796Z" fill="#4C1D95"/>
<path d="M11.961 22.9276C12.3293 22.6595 12.7297 22.4363 13.1534 22.2631C13.5967 22.1392 14.0692 22.1597 14.4995 22.3217C14.9297 22.4837 15.2944 22.7782 15.5382 23.1608C15.7563 23.5424 15.8416 23.983 15.7814 24.4162C15.7212 24.8493 15.5187 25.2516 15.2043 25.5625C14.9606 25.8145 14.6839 26.034 14.3816 26.2154C13.0342 27.0665 11.6748 27.8709 10.3155 28.722C10.0373 28.935 9.74225 29.1261 9.43308 29.2933C8.96281 29.5226 8.42537 29.584 7.91368 29.4669C7.402 29.3499 6.94826 29.0616 6.63092 28.6521C6.39369 28.3621 6.19348 28.045 6.03471 27.7077C4.74691 25.0612 3.41142 22.4263 2.17131 19.7331C1.59895 18.5673 1.13391 17.2265 0.680798 15.9324C0.484759 15.5564 0.446477 15.1205 0.574104 14.7173C0.70173 14.3141 0.985195 13.9755 1.3642 13.7735C1.74321 13.5715 2.18785 13.5221 2.60357 13.6357C3.01929 13.7493 3.37329 14.017 3.59027 14.3818C4.25722 15.2484 4.84761 16.1689 5.35504 17.1333C6.64284 19.465 7.87103 21.7967 9.11113 24.0585C9.18334 24.1835 9.26296 24.3041 9.34961 24.4199C10.283 24.0362 11.1609 23.5345 11.961 22.9276Z" fill="#4C1D95"/>
<path d="M25.2756 22.1142C22.3304 25.4835 17.3938 24.6324 14.9136 20.2954C13.1488 17.2175 12.8388 12.1343 16.6784 8.92819C17.4983 8.25696 18.4787 7.79971 19.5282 7.59909C20.815 7.41872 22.1272 7.64068 23.2772 8.23326C24.4272 8.82584 25.3562 9.7587 25.9315 10.8985C28.0301 14.6293 27.732 19.386 25.2756 22.1142ZM24.0832 14.2562C23.7703 13.3394 23.1426 12.5567 22.3065 12.041C21.8334 11.7113 21.2585 11.551 20.6787 11.5871C20.0988 11.6232 19.5494 11.8535 19.1228 12.2392C17.4177 13.7199 17.0599 17.2292 18.3 19.3161C18.4581 19.6564 18.6902 19.9588 18.9803 20.2022C19.2704 20.4456 19.6114 20.6241 19.9794 20.7251C20.3474 20.8262 20.7335 20.8474 21.1108 20.7873C21.4881 20.7271 21.8473 20.5871 22.1635 20.377C23.0878 19.6763 23.7659 18.7115 24.1035 17.6167C24.4412 16.5218 24.4216 15.3513 24.0475 14.2679L24.0832 14.2562Z" fill="#4C1D95"/>
<path d="M37.2949 15.7252C36.9934 15.7886 36.6819 15.7924 36.3788 15.7363C36.0758 15.6802 35.7872 15.5655 35.5302 15.3988C35.3053 15.273 35.1117 15.1001 34.9633 14.8924C34.815 14.6847 34.7156 14.4475 34.6723 14.1977C34.6289 13.948 34.6428 13.692 34.7127 13.4481C34.7827 13.2042 34.9072 12.9785 35.0771 12.7872C35.3731 12.4028 35.7933 12.1276 36.2695 12.0061C37.5128 11.6533 38.7927 11.4382 40.0852 11.3649C40.3692 11.3326 40.6569 11.3561 40.9314 11.434C41.206 11.512 41.4618 11.6427 41.684 11.8187C41.9061 11.9946 42.0901 12.2122 42.2251 12.4586C42.36 12.705 42.4433 12.9753 42.47 13.2536C42.8426 14.6206 42.8834 16.0539 42.5892 17.4391C41.5161 21.916 37.8196 23.4549 33.67 22.0209C32.5052 21.6375 31.4839 20.9231 30.7367 19.969C29.7401 18.82 29.0335 17.4583 28.6738 15.9934C28.3824 14.6889 28.4143 13.3353 28.767 12.0454C29.1196 10.7555 29.7827 9.56676 30.7009 8.57846C31.5723 7.50429 32.7033 6.65892 33.992 6.11847C34.8063 5.67962 35.7592 5.55484 36.663 5.76871C36.868 5.82419 37.0541 5.93229 37.202 6.0818C37.3499 6.23132 37.4542 6.41679 37.5041 6.619C37.554 6.8212 37.5476 7.03277 37.4857 7.23177C37.4237 7.43076 37.3085 7.60993 37.1519 7.75069C36.8541 8.01424 36.5306 8.24854 36.186 8.45021C35.1259 9.11028 34.2034 9.96083 33.4673 10.9568C32.9848 11.6013 32.6525 12.3414 32.4939 13.1249C32.3352 13.9084 32.3541 14.7164 32.5492 15.4921C32.8196 16.5497 33.4197 17.499 34.2662 18.2085C36.8895 20.5403 40.2998 18.2901 39.7036 15.1073C38.8332 15.3172 38.07 15.5387 37.2949 15.7252Z" fill="#4C1D95"/>
<path d="M53.3215 22.3007C49.4462 24.6325 45.0343 22.3007 44.0684 17.4041C43.3649 13.9065 44.7004 9.00979 49.3747 7.1444C50.3692 6.75605 51.4479 6.6197 52.5107 6.748C53.7876 6.97655 54.959 7.59118 55.8596 8.50525C56.7602 9.41931 57.3448 10.5867 57.5307 11.8429C58.3177 16.005 56.5291 20.447 53.3215 22.3007ZM54.669 14.4544C54.6678 13.4859 54.3174 12.5487 53.6793 11.8079C53.3382 11.3497 52.8451 11.0214 52.2841 10.8789C51.723 10.7365 51.1289 10.7887 50.6028 11.0268C48.5042 11.9128 47.0256 15.1306 47.5622 17.4974C47.6032 17.8688 47.7266 18.227 47.9239 18.5469C48.1212 18.8668 48.3876 19.1407 48.7045 19.3495C49.0213 19.5582 49.381 19.6968 49.7583 19.7555C50.1357 19.8141 50.5216 19.7915 50.889 19.6892C51.9983 19.3103 52.9588 18.6022 53.6364 17.6637C54.3141 16.7252 54.6751 15.6032 54.669 14.4544Z" fill="#4C1D95"/>
<path d="M61.4503 23.2801C61.3918 23.7068 61.1624 24.0933 60.8124 24.3546C60.4624 24.6158 60.0206 24.7305 59.5842 24.6733C59.1478 24.6161 58.7525 24.3917 58.4853 24.0495C58.218 23.7074 58.1008 23.2754 58.1593 22.8487C58.2178 22.422 58.4473 22.0355 58.7972 21.7742C59.1472 21.5129 59.589 21.3983 60.0254 21.4555C60.4618 21.5127 60.8571 21.737 61.1244 22.0792C61.3916 22.4214 61.5089 22.8534 61.4503 23.2801ZM60.4129 7.55246C60.6397 7.21381 60.9724 6.95592 61.3614 6.81725C61.7503 6.67858 62.1747 6.66656 62.5712 6.78299C62.9743 6.8816 63.3304 7.11261 63.5801 7.43734C63.8297 7.76208 63.9576 8.16081 63.9425 8.56677C63.8899 9.21794 63.7903 9.86467 63.6444 10.5021C63.2509 12.659 62.8693 14.8158 62.452 16.9494C62.2612 17.8005 62.0108 18.6166 61.7365 19.4793C61.6411 19.749 61.4817 19.9927 61.2715 20.1905C61.1408 20.3393 60.9739 20.4534 60.7861 20.5223C60.5983 20.5913 60.3958 20.6128 60.1973 20.5849C59.9988 20.557 59.8106 20.4806 59.6503 20.3628C59.49 20.2449 59.3627 20.0894 59.2802 19.9107C59.1384 19.5901 59.0614 19.2456 59.0536 18.8964C59.0536 17.4507 59.0536 15.9934 59.149 14.536C59.3111 12.4562 59.6299 10.3909 60.1029 8.35691C60.1586 8.08441 60.2635 7.82382 60.4129 7.58744V7.55246Z" fill="#4C1D95"/>
<path fill-rule="evenodd" clip-rule="evenodd" d="M6.92312 32.6488C6.78233 32.9561 6.74372 33.2987 6.81252 33.6284C6.85829 34.063 6.95882 34.4905 7.11182 34.9011C7.30284 35.4039 7.51659 35.9011 7.78015 36.5139C7.84076 36.6549 7.9041 36.8021 7.97038 36.957C8.3258 37.7872 8.77176 38.8482 9.36661 40.3837C9.53498 40.8199 9.68449 41.2597 9.83505 41.7025C9.89587 41.8814 9.95691 42.0609 10.0194 42.2408C10.2434 42.8804 10.6287 43.455 11.1395 43.9104C11.3564 44.1607 11.6441 44.3431 11.9667 44.4343C12.2956 44.5273 12.6454 44.5214 12.9708 44.4174C13.2962 44.3133 13.582 44.1159 13.7911 43.8508C13.9961 43.5909 14.118 43.2777 14.1417 42.9505C14.2747 42.3131 14.2293 41.6522 14.0101 41.0377C13.6622 40.0174 13.2659 38.9956 12.8089 37.9962L12.8068 37.9918C12.055 36.4282 11.2908 34.8754 10.4905 33.322L10.4845 33.3111C10.2502 32.9064 9.94567 32.5446 9.58467 32.242C9.35031 31.9719 9.02704 31.7897 8.67004 31.7269C8.30543 31.6628 7.92939 31.7274 7.60905 31.9093C7.30601 32.0785 7.06579 32.3374 6.92312 32.6488Z" fill="#4C1D95"/>
<path fill-rule="evenodd" clip-rule="evenodd" d="M18.4064 28.7986C17.2276 28.5001 15.9965 28.4566 14.7989 28.6712C13.8713 28.7605 12.959 28.9697 12.3255 29.3841C12.0033 29.595 11.7428 29.8658 11.5979 30.21C11.4522 30.5561 11.4336 30.9519 11.553 31.3929C11.771 32.2007 12.0541 32.9861 12.3362 33.769L12.3819 33.8958L12.383 33.8986C13.2324 36.173 14.0899 38.4397 14.9552 40.6986C15.0561 41.0546 15.1988 41.398 15.3804 41.7219L15.3838 41.7279C15.6237 42.1303 15.9314 42.4902 16.2939 42.7925C16.4752 42.9587 16.6994 43.0737 16.9425 43.1251C17.188 43.1769 17.4433 43.1619 17.6806 43.0815C17.918 43.0012 18.1282 42.8587 18.2884 42.6695C18.446 42.4834 18.5492 42.2592 18.5871 42.0206C18.7435 41.3724 18.6934 40.6929 18.4434 40.0733C18.3654 39.8648 18.3042 39.6517 18.2397 39.4274C18.2182 39.3526 18.1964 39.2765 18.1734 39.199C20.1541 38.442 22.2616 37.4241 23.0027 35.0561C23.2929 34.2378 23.3171 33.3517 23.0719 32.5193C22.8265 31.686 22.323 30.9474 21.6308 30.4052C20.6887 29.6462 19.5882 29.0978 18.4064 28.7986ZM15.1389 31.7031C15.1779 31.6921 15.2172 31.6819 15.2566 31.6724C16.5461 31.4742 17.8654 31.7383 18.9716 32.4159C19.4591 32.7474 19.6588 33.1157 19.6931 33.4701C19.7285 33.835 19.5928 34.2304 19.3202 34.6105C18.8051 35.3285 17.8651 35.9032 17.016 36.0103C16.397 34.6165 15.7684 33.1663 15.1389 31.7031Z" fill="#4C1D95"/>
<path d="M26.2637 26.2473C27.6675 25.6134 29.4064 25.5039 30.7671 25.9496C31.1098 26.0472 31.4071 26.2583 31.6082 26.5468C31.808 26.8335 31.9002 27.179 31.8694 27.5244C31.8674 27.7486 31.8111 27.9692 31.7052 28.1682C31.5974 28.3708 31.4413 28.545 31.2501 28.6762C31.0589 28.8073 30.8382 28.8916 30.6067 28.9217C30.3751 28.9519 30.1396 28.9271 29.9199 28.8494L29.9032 28.8435L29.8875 28.8354C29.7751 28.7779 29.6557 28.7346 29.5322 28.7064L29.5244 28.7047C28.5672 28.4561 27.6643 28.868 27.3345 29.3741C27.1772 29.6154 27.1577 29.859 27.2887 30.0806C27.429 30.3179 27.7731 30.5842 28.4694 30.774C28.6609 30.8254 28.8572 30.875 29.0563 30.9254C29.6069 31.0648 30.1791 31.2096 30.7324 31.4103L30.7345 31.4111C33.2871 32.3607 34.2376 34.3274 33.9122 36.1772C33.5903 38.0065 32.0278 39.6713 29.6781 40.064C28.8231 40.2493 27.9333 40.2132 27.0968 39.9593C26.2582 39.7046 25.5023 39.2399 24.9042 38.6111L24.8886 38.5947C24.6998 38.3578 24.5728 38.0795 24.5165 37.7842C24.4647 37.5177 24.492 37.2423 24.595 36.9904C24.6974 36.74 24.8706 36.5233 25.0941 36.3654C25.3302 36.1864 25.6148 36.079 25.9127 36.0566C26.2096 36.0343 26.5067 36.0974 26.7674 36.238C27.0278 36.361 27.27 36.5179 27.4874 36.7045L27.4915 36.7079C27.8761 37.0518 28.3414 37.1414 28.7876 37.0584C29.2403 36.9742 29.666 36.7123 29.9398 36.3648C30.2118 36.0195 30.321 35.6093 30.1914 35.2111C30.061 34.81 29.6689 34.3606 28.8074 33.9849C28.5822 33.8914 28.3487 33.816 28.1058 33.7426C28.0403 33.7228 27.9737 33.7031 27.9063 33.6831C27.7267 33.6298 27.5419 33.5749 27.3607 33.5144C27.2359 33.4728 27.1121 33.4334 26.9895 33.3943C26.6544 33.2876 26.3277 33.1836 26.0133 33.0441C25.329 32.8163 24.7378 32.3789 24.3277 31.7966C23.9159 31.212 23.7087 30.5129 23.7369 29.8037C23.7391 28.0754 24.8524 26.8847 26.2637 26.2473Z" fill="#4C1D95"/>
<path d="M44.0612 26.0632C43.789 25.9332 43.488 25.8715 43.1854 25.8836C42.8827 25.8958 42.5879 25.9814 42.3276 26.1329C42.0689 26.2833 41.8523 26.4939 41.6971 26.746C41.5548 26.9583 41.4563 27.1957 41.4072 27.445C41.3581 27.6941 41.3593 27.9501 41.4106 28.1986C41.4613 28.518 41.5175 28.8286 41.573 29.1349C41.6649 29.6418 41.7543 30.1373 41.8133 30.6425L41.8155 30.6553C41.9498 31.4476 42.0201 32.2489 42.0264 33.0519L42.027 33.0633C42.0729 33.9305 41.7707 34.7808 41.1852 35.4338L41.1759 35.4454C40.9854 35.6841 40.7307 35.8663 40.4402 35.9716C40.1498 36.0769 39.8352 36.1011 39.5315 36.0415C39.2278 35.9819 38.9471 35.8409 38.7207 35.6342C38.4943 35.4275 38.331 35.1625 38.2495 34.8704C38.0755 34.2547 37.9748 33.6214 37.9492 32.9832L38.2464 28.3569C38.2508 28.2965 38.2558 28.2345 38.2609 28.1719C38.2722 28.0314 38.2838 27.8883 38.2886 27.7548C38.2956 27.5584 38.2896 27.3564 38.2428 27.1652C38.1949 26.9698 38.1038 26.7839 37.9422 26.6256C37.7822 26.4689 37.5662 26.3533 37.2944 26.2746C36.8029 26.1355 36.3873 26.1399 36.041 26.2836C35.6945 26.4273 35.4571 26.6941 35.2891 27.0023C35.1224 27.3079 35.0153 27.6697 34.9343 28.0321C34.8742 28.301 34.8259 28.5833 34.78 28.852C34.7641 28.9446 34.7486 29.0355 34.7329 29.1238L34.7325 29.1264C34.4869 30.6 34.4138 32.0962 34.5146 33.586C34.5334 34.3911 34.7051 35.1858 35.0211 35.9295C35.3776 36.8891 36.0233 37.7205 36.873 38.314C37.7245 38.9087 38.7406 39.2364 39.7868 39.2537C40.833 39.271 41.8599 38.9771 42.7315 38.411C43.6017 37.8457 44.2761 37.0355 44.6655 36.0876C45.2102 34.8801 45.466 33.5669 45.4132 32.2481C45.3812 31.2853 45.3276 30.3151 45.2743 29.3498C45.2481 28.8763 45.222 28.4038 45.1986 27.9342C45.1868 27.4633 45.028 27.0072 44.7434 26.6271C44.5673 26.3868 44.3329 26.193 44.0612 26.0632Z" fill="#4C1D95"/>
<path d="M53.697 33.3173C53.6694 33.3516 53.6403 33.3871 53.6099 33.424C53.3885 32.1752 53.1833 30.9268 52.9778 29.6765C52.9041 29.2279 52.83 28.7774 52.7555 28.3282L52.7471 28.2781L52.7199 28.2348C52.6686 28.1533 52.6635 28.0734 52.6635 27.903V27.8833L52.6604 27.8638C52.6048 27.5119 52.442 27.1844 52.1933 26.9242C51.9453 26.6647 51.6232 26.4841 51.2689 26.4057C50.9152 26.3204 50.5435 26.3392 50.2006 26.4598C49.8586 26.5801 49.5605 26.7963 49.3435 27.0813C49.1631 27.3 49.0152 27.5426 48.9044 27.8018C48.6529 28.3602 48.3992 28.92 48.1448 29.4813L48.1404 29.491C47.5053 30.8923 46.8659 32.303 46.2451 33.7248L46.2432 33.7294C45.8621 34.6513 45.5475 35.6227 45.234 36.5911C45.1714 36.7844 45.1088 36.9776 45.0457 37.1703C44.9325 37.4759 44.883 37.8005 44.9 38.125C44.8794 38.4155 44.9505 38.7053 45.1039 38.9552C45.2603 39.2102 45.4946 39.4108 45.7737 39.5289C46.0695 39.6557 46.4002 39.6826 46.7135 39.6054C47.0261 39.5283 47.3037 39.3519 47.5026 39.1039C47.7566 38.7984 47.9751 38.4652 48.1533 38.1122C48.6792 37.0604 49.1818 35.9958 49.6821 34.9358C49.8757 34.5258 50.0638 34.1586 50.2778 33.7587C50.2925 33.808 50.3075 33.8561 50.323 33.9043C50.5473 34.8698 50.9259 35.7946 51.4448 36.6448C51.543 36.8249 51.6798 36.9823 51.8458 37.1062C52.0138 37.2316 52.2077 37.3196 52.414 37.3643C52.6203 37.409 52.8341 37.4092 53.0405 37.3649C53.2466 37.3207 53.4411 37.2326 53.6092 37.1078L53.9419 36.8643L56.5242 34.7376L56.3715 35.6891C56.1619 36.997 55.9539 38.294 55.7329 39.5913C55.5883 40.1663 55.5885 40.7669 55.7335 41.3417C55.7963 41.6652 55.9563 41.963 56.1931 42.1972C56.4319 42.4333 56.7377 42.5937 57.0709 42.6577C57.4041 42.7216 57.7493 42.6862 58.0616 42.5559C58.3694 42.4276 58.6312 42.213 58.8142 41.9395C59.24 41.423 59.505 40.7977 59.5778 40.138C59.6874 39.2064 59.8112 38.2621 59.9351 37.3181C60.0778 36.23 60.2205 35.1422 60.341 34.0753L60.3414 34.072C60.4574 32.9041 60.5135 31.7314 60.5096 30.558C60.535 30.1872 60.4406 29.8178 60.2394 29.5021C60.0375 29.1853 59.7385 28.939 59.3851 28.7981C59.0175 28.6347 58.606 28.591 58.2111 28.6736C57.8188 28.7556 57.4637 28.9578 57.1973 29.2507C56.721 29.6814 56.2742 30.1423 55.8597 30.6304L55.8569 30.6337C55.4044 31.185 54.955 31.7471 54.5085 32.3056C54.237 32.6451 53.9663 32.9838 53.697 33.3173Z" fill="#4C1D95"/>
</g>
<defs>
<clipPath id="clip0_116_10972">
<rect width="70" height="44" fill="white" transform="translate(0.5 0.5)"/>
</clipPath>
</defs>
</svg>
