<svg width="139" height="37" viewBox="0 0 139 37" fill="none" xmlns="http://www.w3.org/2000/svg">
<path d="M11.8071 33.1547L8.55469 27.5213L13.3278 19.2767L16.3609 24.5306L34.2661 24.521L29.1854 33.2325L11.8071 33.1547Z" fill="#FDBA74"/>
<path d="M37.4643 18.9272L34.2119 24.5605L24.6853 24.5493L27.7187 19.2955L18.7578 3.79395L28.8425 3.8382L37.4643 18.9272Z" fill="#CCFBF1"/>
<path d="M12.3093 3.76398H18.8142L23.5677 12.02L17.501 12.0197L8.55681 27.5309L3.55273 18.7752L12.3093 3.76398Z" fill="#FB923C"/>
<path fill-rule="evenodd" clip-rule="evenodd" d="M19.6073 2.45961L19.5879 2.42596H11.5409L2.00781 18.7684L8.55175 30.2184L8.55978 30.2045L11.0337 34.4894L29.9531 34.574L36.5972 23.1817H36.553L39.0074 18.9306L29.621 2.50354L19.6073 2.45961ZM25.8321 13.358H25.8823L21.152 5.14252L28.0641 5.17283L35.9213 18.9237L33.462 23.1835L27.017 23.1869L29.2641 19.295L25.8321 13.358ZM17.9686 5.10202L21.194 10.6818L16.7282 10.6817L9.08262 23.9406L8.5611 24.8415L5.09797 18.782L13.078 5.10202H17.9686ZM14.8675 19.2656L18.2741 13.3578L22.7411 13.358L26.1735 19.2958L23.9259 23.1886L17.1344 23.1923L14.8675 19.2656ZM10.1038 27.5267L11.3999 25.2792L13.3272 21.9501L15.5897 25.8692L22.3802 25.8655L22.3692 25.8845L31.9164 25.8958L28.4199 31.8911L12.5827 31.8202L10.1038 27.5267Z" fill="#1E293B"/>
<path d="M52.6289 9.4375H55.6055L59.9883 21.9648L64.3711 9.4375H67.3477L61.1836 26.5H58.793L52.6289 9.4375ZM51.0234 9.4375H53.9883L54.5273 21.6484V26.5H51.0234V9.4375ZM65.9883 9.4375H68.9648V26.5H65.4492V21.6484L65.9883 9.4375ZM77.6719 26.7344C76.6875 26.7344 75.8047 26.5781 75.0234 26.2656C74.2422 25.9453 73.5781 25.5039 73.0312 24.9414C72.4922 24.3789 72.0781 23.7266 71.7891 22.9844C71.5 22.2344 71.3555 21.4375 71.3555 20.5938V20.125C71.3555 19.1641 71.4922 18.2852 71.7656 17.4883C72.0391 16.6914 72.4297 16 72.9375 15.4141C73.4531 14.8281 74.0781 14.3789 74.8125 14.0664C75.5469 13.7461 76.375 13.5859 77.2969 13.5859C78.1953 13.5859 78.9922 13.7344 79.6875 14.0312C80.3828 14.3281 80.9648 14.75 81.4336 15.2969C81.9102 15.8438 82.2695 16.5 82.5117 17.2656C82.7539 18.0234 82.875 18.8672 82.875 19.7969V21.2031H72.7969V18.9531H79.5586V18.6953C79.5586 18.2266 79.4727 17.8086 79.3008 17.4414C79.1367 17.0664 78.8867 16.7695 78.5508 16.5508C78.2148 16.332 77.7852 16.2227 77.2617 16.2227C76.8164 16.2227 76.4336 16.3203 76.1133 16.5156C75.793 16.7109 75.5312 16.9844 75.3281 17.3359C75.1328 17.6875 74.9844 18.1016 74.8828 18.5781C74.7891 19.0469 74.7422 19.5625 74.7422 20.125V20.5938C74.7422 21.1016 74.8125 21.5703 74.9531 22C75.1016 22.4297 75.3086 22.8008 75.5742 23.1133C75.8477 23.4258 76.1758 23.668 76.5586 23.8398C76.9492 24.0117 77.3906 24.0977 77.8828 24.0977C78.4922 24.0977 79.0586 23.9805 79.582 23.7461C80.1133 23.5039 80.5703 23.1406 80.9531 22.6562L82.5938 24.4375C82.3281 24.8203 81.9648 25.1875 81.5039 25.5391C81.0508 25.8906 80.5039 26.1797 79.8633 26.4062C79.2227 26.625 78.4922 26.7344 77.6719 26.7344ZM91.0078 13.8203V16.2109H83.625V13.8203H91.0078ZM85.4531 10.6914H88.8281V22.6797C88.8281 23.0469 88.875 23.3281 88.9688 23.5234C89.0703 23.7188 89.2188 23.8555 89.4141 23.9336C89.6094 24.0039 89.8555 24.0391 90.1523 24.0391C90.3633 24.0391 90.5508 24.0312 90.7148 24.0156C90.8867 23.9922 91.0312 23.9688 91.1484 23.9453L91.1602 26.4297C90.8711 26.5234 90.5586 26.5977 90.2227 26.6523C89.8867 26.707 89.5156 26.7344 89.1094 26.7344C88.3672 26.7344 87.7188 26.6133 87.1641 26.3711C86.6172 26.1211 86.1953 25.7227 85.8984 25.1758C85.6016 24.6289 85.4531 23.9102 85.4531 23.0195V10.6914ZM99.7734 23.6406V17.9922C99.7734 17.5859 99.707 17.2383 99.5742 16.9492C99.4414 16.6523 99.2344 16.4219 98.9531 16.2578C98.6797 16.0938 98.3242 16.0117 97.8867 16.0117C97.5117 16.0117 97.1875 16.0781 96.9141 16.2109C96.6406 16.3359 96.4297 16.5195 96.2812 16.7617C96.1328 16.9961 96.0586 17.2734 96.0586 17.5938H92.6836C92.6836 17.0547 92.8086 16.543 93.0586 16.0586C93.3086 15.5742 93.6719 15.1484 94.1484 14.7812C94.625 14.4062 95.1914 14.1133 95.8477 13.9023C96.5117 13.6914 97.2539 13.5859 98.0742 13.5859C99.0586 13.5859 99.9336 13.75 100.699 14.0781C101.465 14.4062 102.066 14.8984 102.504 15.5547C102.949 16.2109 103.172 17.0312 103.172 18.0156V23.4414C103.172 24.1367 103.215 24.707 103.301 25.1523C103.387 25.5898 103.512 25.9727 103.676 26.3008V26.5H100.266C100.102 26.1562 99.9766 25.7266 99.8906 25.2109C99.8125 24.6875 99.7734 24.1641 99.7734 23.6406ZM100.219 18.7773L100.242 20.6875H98.3555C97.9102 20.6875 97.5234 20.7383 97.1953 20.8398C96.8672 20.9414 96.5977 21.0859 96.3867 21.2734C96.1758 21.4531 96.0195 21.6641 95.918 21.9062C95.8242 22.1484 95.7773 22.4141 95.7773 22.7031C95.7773 22.9922 95.8438 23.2539 95.9766 23.4883C96.1094 23.7148 96.3008 23.8945 96.5508 24.0273C96.8008 24.1523 97.0938 24.2148 97.4297 24.2148C97.9375 24.2148 98.3789 24.1133 98.7539 23.9102C99.1289 23.707 99.418 23.457 99.6211 23.1602C99.832 22.8633 99.9414 22.582 99.9492 22.3164L100.84 23.7461C100.715 24.0664 100.543 24.3984 100.324 24.7422C100.113 25.0859 99.8438 25.4102 99.5156 25.7148C99.1875 26.0117 98.793 26.2578 98.332 26.4531C97.8711 26.6406 97.3242 26.7344 96.6914 26.7344C95.8867 26.7344 95.1562 26.5742 94.5 26.2539C93.8516 25.9258 93.3359 25.4766 92.9531 24.9062C92.5781 24.3281 92.3906 23.6719 92.3906 22.9375C92.3906 22.2734 92.5156 21.6836 92.7656 21.168C93.0156 20.6523 93.3828 20.2188 93.8672 19.8672C94.3594 19.5078 94.9727 19.2383 95.707 19.0586C96.4414 18.8711 97.293 18.7773 98.2617 18.7773H100.219ZM105.773 8.5H109.148V23.5938L108.809 26.5H105.773V8.5ZM117.176 20.0312V20.2773C117.176 21.2227 117.074 22.0898 116.871 22.8789C116.676 23.668 116.371 24.3516 115.957 24.9297C115.543 25.5 115.027 25.9453 114.41 26.2656C113.801 26.5781 113.082 26.7344 112.254 26.7344C111.48 26.7344 110.809 26.5781 110.238 26.2656C109.676 25.9531 109.203 25.5117 108.82 24.9414C108.438 24.3711 108.129 23.7031 107.895 22.9375C107.66 22.1719 107.484 21.3359 107.367 20.4297V19.8906C107.484 18.9844 107.66 18.1484 107.895 17.3828C108.129 16.6172 108.438 15.9492 108.82 15.3789C109.203 14.8086 109.676 14.3672 110.238 14.0547C110.801 13.7422 111.465 13.5859 112.23 13.5859C113.066 13.5859 113.793 13.7461 114.41 14.0664C115.035 14.3789 115.551 14.8242 115.957 15.4023C116.371 15.9727 116.676 16.6523 116.871 17.4414C117.074 18.2227 117.176 19.0859 117.176 20.0312ZM113.801 20.2773V20.0312C113.801 19.5156 113.762 19.0312 113.684 18.5781C113.613 18.1172 113.488 17.7148 113.309 17.3711C113.129 17.0195 112.883 16.7422 112.57 16.5391C112.266 16.3359 111.871 16.2344 111.387 16.2344C110.926 16.2344 110.535 16.3125 110.215 16.4688C109.895 16.625 109.629 16.8438 109.418 17.125C109.215 17.4062 109.062 17.7422 108.961 18.1328C108.859 18.5156 108.797 18.9375 108.773 19.3984V20.9336C108.797 21.5508 108.898 22.0977 109.078 22.5742C109.266 23.043 109.547 23.4141 109.922 23.6875C110.305 23.9531 110.801 24.0859 111.41 24.0859C111.887 24.0859 112.281 23.9922 112.594 23.8047C112.906 23.6172 113.148 23.3516 113.32 23.0078C113.5 22.6641 113.625 22.2617 113.695 21.8008C113.766 21.332 113.801 20.8242 113.801 20.2773ZM122.836 8.5V26.5H119.449V8.5H122.836ZM133.125 23.4648V13.8203H136.5V26.5H133.324L133.125 23.4648ZM133.5 20.8633L134.496 20.8398C134.496 21.6836 134.398 22.4688 134.203 23.1953C134.008 23.9141 133.715 24.5391 133.324 25.0703C132.934 25.5938 132.441 26.0039 131.848 26.3008C131.254 26.5898 130.555 26.7344 129.75 26.7344C129.133 26.7344 128.562 26.6484 128.039 26.4766C127.523 26.2969 127.078 26.0195 126.703 25.6445C126.336 25.2617 126.047 24.7734 125.836 24.1797C125.633 23.5781 125.531 22.8555 125.531 22.0117V13.8203H128.906V22.0352C128.906 22.4102 128.949 22.7266 129.035 22.9844C129.129 23.2422 129.258 23.4531 129.422 23.6172C129.586 23.7812 129.777 23.8984 129.996 23.9688C130.223 24.0391 130.473 24.0742 130.746 24.0742C131.441 24.0742 131.988 23.9336 132.387 23.6523C132.793 23.3711 133.078 22.9883 133.242 22.5039C133.414 22.0117 133.5 21.4648 133.5 20.8633Z" fill="#0F172A"/>
</svg>
