<svg width="146" height="46" viewBox="0 0 146 46" fill="none" xmlns="http://www.w3.org/2000/svg">
<g clip-path="url(#clip0_116_10953)">
<path fill-rule="evenodd" clip-rule="evenodd" d="M27.1041 3.72414C25.6103 2.23101 23.189 2.2315 21.6959 3.72525L9.23456 16.1917L9.22394 16.1886L9.18456 16.1928C9.20078 16.2006 9.2167 16.2083 9.2323 16.2161C7.04632 16.4451 6.11884 17.102 6.10834 17.9456C6.11204 18.2594 6.24079 18.5983 6.47728 18.9501L6.46591 18.9615C8.45319 21.9588 18.2981 25.9127 25.2631 23.2338C20.0431 25.8438 7.74976 26.3611 4.13901 21.2935C3.35487 22.1418 3.02679 23.2566 3.15034 24.3279C4.1042 29.5853 14.7684 31.0196 25.4327 23.4023L27.7404 25.71C24.8688 28.6602 20.6271 45.7967 26.9298 43.1803C27.0793 43.0788 27.2062 42.988 27.3788 42.8574L27.6597 42.5922C27.6435 42.5962 27.6274 42.6 27.6114 42.6038L44.4914 26.6681C46.0587 25.1884 46.0942 22.7065 44.5697 21.1826L27.1041 3.72414ZM25.2659 8.91743L25.8428 6.60974L26.4197 8.91743L28.1505 9.49436L26.4197 10.0713L25.8428 12.379L25.2659 10.0713L23.5351 9.49436L25.2659 8.91743ZM18.125 16.4508L18.5096 14.9123L18.8942 16.4508L20.0481 16.8354L18.8942 17.22L18.5096 18.7585L18.125 17.22L16.9712 16.8354L18.125 16.4508ZM31.5206 29.4277L31.136 30.9661L29.9822 31.3508L31.136 31.7354L31.5206 33.2738L31.9052 31.7354L33.0591 31.3508L31.9052 30.9661L31.5206 29.4277Z" fill="#4F46E5"/>
<path fill-rule="evenodd" clip-rule="evenodd" d="M45.7912 5.25128C42.1825 5.25128 38.7602 6.85419 36.4499 9.62649L28.2309 19.4894L32.9769 12.3703L25.0989 15.7466C24.0984 16.1754 23.8474 17.4789 24.617 18.2486L27.1522 20.7837L25.8578 22.337L28.7055 25.1846L30.2587 23.8902L32.7939 26.4254C33.5635 27.195 34.8671 26.944 35.2958 25.9436L38.6721 18.0656L31.5531 22.8116L41.416 14.5925C44.1883 12.2823 45.7912 8.86 45.7912 5.25128ZM37.9603 13.0824C38.7466 13.8687 40.0215 13.8687 40.8079 13.0824C41.5942 12.296 41.5942 11.0211 40.8079 10.2348C40.0215 9.44841 38.7466 9.44841 37.9603 10.2348C37.1739 11.0211 37.1739 12.296 37.9603 13.0824Z" fill="#A78BFA"/>
<path opacity="0.6" d="M4.04883 21.1609C5.93429 27.6207 17.3975 27.2839 25.2623 23.2348C19.9959 25.8664 7.53785 26.369 4.04883 21.1609Z" fill="#64748B"/>
<path opacity="0.6" d="M26.9311 43.1803C21.6203 45.3849 23.7963 33.5645 26.3307 28.0245C24.4833 32.9487 22.9063 43.8038 27.661 42.5922L27.3801 42.8574C27.2075 42.988 27.0806 43.0788 26.9311 43.1803Z" fill="#64748B"/>
<path d="M64.125 29.5391L66.9375 19.3203H70.4648L66.1875 32H64.0547L64.125 29.5391ZM62.1914 19.3203L65.0156 29.5508L65.0742 32H62.9297L58.6523 19.3203H62.1914ZM72.1875 14.9375H78.5508C79.8555 14.9375 80.9766 15.1328 81.9141 15.5234C82.8594 15.9141 83.5859 16.4922 84.0938 17.2578C84.6016 18.0234 84.8555 18.9648 84.8555 20.082C84.8555 20.9961 84.6992 21.7812 84.3867 22.4375C84.082 23.0859 83.6484 23.6289 83.0859 24.0664C82.5312 24.4961 81.8789 24.8398 81.1289 25.0977L80.0156 25.6836H74.4844L74.4609 22.9414H78.5742C79.1914 22.9414 79.7031 22.832 80.1094 22.6133C80.5156 22.3945 80.8203 22.0898 81.0234 21.6992C81.2344 21.3086 81.3398 20.8555 81.3398 20.3398C81.3398 19.793 81.2383 19.3203 81.0352 18.9219C80.832 18.5234 80.5234 18.2188 80.1094 18.0078C79.6953 17.7969 79.1758 17.6914 78.5508 17.6914H75.7031V32H72.1875V14.9375ZM81.7266 32L77.8359 24.3945L81.5508 24.3711L85.4883 31.8359V32H81.7266ZM86.8125 25.7891V25.543C86.8125 24.6133 86.9453 23.7578 87.2109 22.9766C87.4766 22.1875 87.8633 21.5039 88.3711 20.9258C88.8789 20.3477 89.5039 19.8984 90.2461 19.5781C90.9883 19.25 91.8398 19.0859 92.8008 19.0859C93.7617 19.0859 94.6172 19.25 95.3672 19.5781C96.1172 19.8984 96.7461 20.3477 97.2539 20.9258C97.7695 21.5039 98.1602 22.1875 98.4258 22.9766C98.6914 23.7578 98.8242 24.6133 98.8242 25.543V25.7891C98.8242 26.7109 98.6914 27.5664 98.4258 28.3555C98.1602 29.1367 97.7695 29.8203 97.2539 30.4062C96.7461 30.9844 96.1211 31.4336 95.3789 31.7539C94.6367 32.0742 93.7852 32.2344 92.8242 32.2344C91.8633 32.2344 91.0078 32.0742 90.2578 31.7539C89.5156 31.4336 88.8867 30.9844 88.3711 30.4062C87.8633 29.8203 87.4766 29.1367 87.2109 28.3555C86.9453 27.5664 86.8125 26.7109 86.8125 25.7891ZM90.1875 25.543V25.7891C90.1875 26.3203 90.2344 26.8164 90.3281 27.2773C90.4219 27.7383 90.5703 28.1445 90.7734 28.4961C90.9844 28.8398 91.2578 29.1094 91.5938 29.3047C91.9297 29.5 92.3398 29.5977 92.8242 29.5977C93.293 29.5977 93.6953 29.5 94.0312 29.3047C94.3672 29.1094 94.6367 28.8398 94.8398 28.4961C95.043 28.1445 95.1914 27.7383 95.2852 27.2773C95.3867 26.8164 95.4375 26.3203 95.4375 25.7891V25.543C95.4375 25.0273 95.3867 24.543 95.2852 24.0898C95.1914 23.6289 95.0391 23.2227 94.8281 22.8711C94.625 22.5117 94.3555 22.2305 94.0195 22.0273C93.6836 21.8242 93.2773 21.7227 92.8008 21.7227C92.3242 21.7227 91.918 21.8242 91.582 22.0273C91.2539 22.2305 90.9844 22.5117 90.7734 22.8711C90.5703 23.2227 90.4219 23.6289 90.3281 24.0898C90.2344 24.543 90.1875 25.0273 90.1875 25.543ZM104.273 13.9883V32H100.898V13.9883H104.273ZM112.266 19.3203L106.758 25.6016L103.805 28.5898L102.574 26.1523L104.918 23.1758L108.211 19.3203H112.266ZM108.762 32L105.012 26.1406L107.344 24.1016L112.652 32H108.762ZM119.32 32.2344C118.336 32.2344 117.453 32.0781 116.672 31.7656C115.891 31.4453 115.227 31.0039 114.68 30.4414C114.141 29.8789 113.727 29.2266 113.438 28.4844C113.148 27.7344 113.004 26.9375 113.004 26.0938V25.625C113.004 24.6641 113.141 23.7852 113.414 22.9883C113.688 22.1914 114.078 21.5 114.586 20.9141C115.102 20.3281 115.727 19.8789 116.461 19.5664C117.195 19.2461 118.023 19.0859 118.945 19.0859C119.844 19.0859 120.641 19.2344 121.336 19.5312C122.031 19.8281 122.613 20.25 123.082 20.7969C123.559 21.3438 123.918 22 124.16 22.7656C124.402 23.5234 124.523 24.3672 124.523 25.2969V26.7031H114.445V24.4531H121.207V24.1953C121.207 23.7266 121.121 23.3086 120.949 22.9414C120.785 22.5664 120.535 22.2695 120.199 22.0508C119.863 21.832 119.434 21.7227 118.91 21.7227C118.465 21.7227 118.082 21.8203 117.762 22.0156C117.441 22.2109 117.18 22.4844 116.977 22.8359C116.781 23.1875 116.633 23.6016 116.531 24.0781C116.438 24.5469 116.391 25.0625 116.391 25.625V26.0938C116.391 26.6016 116.461 27.0703 116.602 27.5C116.75 27.9297 116.957 28.3008 117.223 28.6133C117.496 28.9258 117.824 29.168 118.207 29.3398C118.598 29.5117 119.039 29.5977 119.531 29.5977C120.141 29.5977 120.707 29.4805 121.23 29.2461C121.762 29.0039 122.219 28.6406 122.602 28.1562L124.242 29.9375C123.977 30.3203 123.613 30.6875 123.152 31.0391C122.699 31.3906 122.152 31.6797 121.512 31.9062C120.871 32.125 120.141 32.2344 119.32 32.2344ZM132.656 19.3203V21.7109H125.273V19.3203H132.656ZM127.102 16.1914H130.477V28.1797C130.477 28.5469 130.523 28.8281 130.617 29.0234C130.719 29.2188 130.867 29.3555 131.062 29.4336C131.258 29.5039 131.504 29.5391 131.801 29.5391C132.012 29.5391 132.199 29.5312 132.363 29.5156C132.535 29.4922 132.68 29.4688 132.797 29.4453L132.809 31.9297C132.52 32.0234 132.207 32.0977 131.871 32.1523C131.535 32.207 131.164 32.2344 130.758 32.2344C130.016 32.2344 129.367 32.1133 128.812 31.8711C128.266 31.6211 127.844 31.2227 127.547 30.6758C127.25 30.1289 127.102 29.4102 127.102 28.5195V16.1914ZM141.434 28.4961C141.434 28.2539 141.363 28.0352 141.223 27.8398C141.082 27.6445 140.82 27.4648 140.438 27.3008C140.062 27.1289 139.52 26.9727 138.809 26.832C138.168 26.6914 137.57 26.5156 137.016 26.3047C136.469 26.0859 135.992 25.8242 135.586 25.5195C135.188 25.2148 134.875 24.8555 134.648 24.4414C134.422 24.0195 134.309 23.5391 134.309 23C134.309 22.4688 134.422 21.9688 134.648 21.5C134.883 21.0312 135.215 20.6172 135.645 20.2578C136.082 19.8906 136.613 19.6055 137.238 19.4023C137.871 19.1914 138.582 19.0859 139.371 19.0859C140.473 19.0859 141.418 19.2617 142.207 19.6133C143.004 19.9648 143.613 20.4492 144.035 21.0664C144.465 21.6758 144.68 22.3711 144.68 23.1523H141.305C141.305 22.8242 141.234 22.5312 141.094 22.2734C140.961 22.0078 140.75 21.8008 140.461 21.6523C140.18 21.4961 139.812 21.418 139.359 21.418C138.984 21.418 138.66 21.4844 138.387 21.6172C138.113 21.7422 137.902 21.9141 137.754 22.1328C137.613 22.3438 137.543 22.5781 137.543 22.8359C137.543 23.0312 137.582 23.207 137.66 23.3633C137.746 23.5117 137.883 23.6484 138.07 23.7734C138.258 23.8984 138.5 24.0156 138.797 24.125C139.102 24.2266 139.477 24.3203 139.922 24.4062C140.836 24.5938 141.652 24.8398 142.371 25.1445C143.09 25.4414 143.66 25.8477 144.082 26.3633C144.504 26.8711 144.715 27.5391 144.715 28.3672C144.715 28.9297 144.59 29.4453 144.34 29.9141C144.09 30.3828 143.73 30.793 143.262 31.1445C142.793 31.4883 142.23 31.7578 141.574 31.9531C140.926 32.1406 140.195 32.2344 139.383 32.2344C138.203 32.2344 137.203 32.0234 136.383 31.6016C135.57 31.1797 134.953 30.6445 134.531 29.9961C134.117 29.3398 133.91 28.668 133.91 27.9805H137.109C137.125 28.4414 137.242 28.8125 137.461 29.0938C137.688 29.375 137.973 29.5781 138.316 29.7031C138.668 29.8281 139.047 29.8906 139.453 29.8906C139.891 29.8906 140.254 29.832 140.543 29.7148C140.832 29.5898 141.051 29.4258 141.199 29.2227C141.355 29.0117 141.434 28.7695 141.434 28.4961Z" fill="#0F172A"/>
</g>
<defs>
<clipPath id="clip0_116_10953">
<rect width="145" height="46" fill="white" transform="translate(0.5)"/>
</clipPath>
</defs>
</svg>
