<svg width="125" height="36" viewBox="0 0 125 36" fill="none" xmlns="http://www.w3.org/2000/svg">
<path d="M8.41 16.8847C9.14777 13.9194 10.8564 11.2861 13.2639 9.40424C15.6714 7.52234 18.6393 6.5 21.695 6.5C24.7507 6.5 27.7186 7.52234 30.1261 9.40424C32.5336 11.2861 34.2422 13.9194 34.98 16.8847H33.78C31.7557 16.8549 29.7729 17.4599 28.11 18.6147C28.014 18.6842 27.9138 18.7477 27.81 18.8047H27.67C27.5662 18.7477 27.466 18.6842 27.37 18.6147C25.6924 17.4866 23.7166 16.8841 21.695 16.8841C19.6734 16.8841 17.6976 17.4866 16.02 18.6147C15.924 18.6842 15.8238 18.7477 15.72 18.8047H15.58C15.4762 18.7477 15.376 18.6842 15.28 18.6147C13.6171 17.4599 11.6343 16.8549 9.61 16.8847H8.41ZM31.62 23.1547C32.236 22.675 32.9995 22.424 33.78 22.4447H35.39V19.2347H33.78C32.4052 19.2181 31.0619 19.646 29.95 20.4547C29.3243 20.916 28.5674 21.1649 27.79 21.1649C27.0126 21.1649 26.2557 20.916 25.63 20.4547C24.4899 19.6611 23.1341 19.2356 21.745 19.2356C20.3559 19.2356 19.0001 19.6611 17.86 20.4547C17.2343 20.916 16.4774 21.1649 15.7 21.1649C14.9226 21.1649 14.1657 20.916 13.54 20.4547C12.4144 19.6356 11.0518 19.2072 9.66 19.2347H8V22.4447H9.61C10.3905 22.424 11.154 22.675 11.77 23.1547C12.908 23.9489 14.2623 24.3747 15.65 24.3747C17.0377 24.3747 18.392 23.9489 19.53 23.1547C20.1468 22.6765 20.9097 22.4257 21.69 22.4447C22.4708 22.4223 23.2348 22.6735 23.85 23.1547C24.9901 23.9484 26.3459 24.3738 27.735 24.3738C29.1241 24.3738 30.4799 23.9484 31.62 23.1547ZM31.62 28.8947C32.236 28.415 32.9995 28.164 33.78 28.1847H35.39V24.9747H33.78C32.4052 24.9581 31.0619 25.386 29.95 26.1947C29.3243 26.656 28.5674 26.9049 27.79 26.9049C27.0126 26.9049 26.2557 26.656 25.63 26.1947C24.4899 25.4011 23.1341 24.9757 21.745 24.9757C20.3559 24.9757 19.0001 25.4011 17.86 26.1947C17.2343 26.656 16.4774 26.9049 15.7 26.9049C14.9226 26.9049 14.1657 26.656 13.54 26.1947C12.4144 25.3757 11.0518 24.9472 9.66 24.9747H8V28.1847H9.61C10.3905 28.164 11.154 28.415 11.77 28.8947C12.908 29.6889 14.2623 30.1147 15.65 30.1147C17.0377 30.1147 18.392 29.6889 19.53 28.8947C20.1468 28.4165 20.9097 28.1657 21.69 28.1847C22.4708 28.1623 23.2348 28.4135 23.85 28.8947C24.9901 29.6884 26.3459 30.1138 27.735 30.1138C29.1241 30.1138 30.4799 29.6884 31.62 28.8947Z" fill="#0EA5E9"/>
<path d="M50.4395 22.6853L53.0762 13.2869H55.2207L54.5293 16.9783L51.8926 25.9666H50.0996L50.4395 22.6853ZM49.1035 13.2869L50.9902 22.6736L51.166 25.9666H49.0566L45.8457 13.2869H49.1035ZM57.6348 22.5212L59.4746 13.2869H62.7441L59.5332 25.9666H57.4355L57.6348 22.5212ZM55.5137 13.2869L58.1387 22.615L58.502 25.9666H56.6973L54.0605 16.99L53.3926 13.2869H55.5137ZM70.2793 26.2009C69.2949 26.2009 68.4121 26.0447 67.6309 25.7322C66.8496 25.4119 66.1855 24.9705 65.6387 24.408C65.0996 23.8455 64.6855 23.1931 64.3965 22.4509C64.1074 21.7009 63.9629 20.9041 63.9629 20.0603V19.5916C63.9629 18.6306 64.0996 17.7517 64.373 16.9548C64.6465 16.158 65.0371 15.4666 65.5449 14.8806C66.0605 14.2947 66.6855 13.8455 67.4199 13.533C68.1543 13.2126 68.9824 13.0525 69.9043 13.0525C70.8027 13.0525 71.5996 13.2009 72.2949 13.4978C72.9902 13.7947 73.5723 14.2166 74.041 14.7634C74.5176 15.3103 74.877 15.9666 75.1191 16.7322C75.3613 17.49 75.4824 18.3337 75.4824 19.2634V20.6697H65.4043V18.4197H72.166V18.1619C72.166 17.6931 72.0801 17.2751 71.9082 16.908C71.7441 16.533 71.4941 16.2361 71.1582 16.0173C70.8223 15.7986 70.3926 15.6892 69.8691 15.6892C69.4238 15.6892 69.041 15.7869 68.7207 15.9822C68.4004 16.1775 68.1387 16.4509 67.9355 16.8025C67.7402 17.1541 67.5918 17.5681 67.4902 18.0447C67.3965 18.5134 67.3496 19.0291 67.3496 19.5916V20.0603C67.3496 20.5681 67.4199 21.0369 67.5605 21.4666C67.709 21.8962 67.916 22.2673 68.1816 22.5798C68.4551 22.8923 68.7832 23.1345 69.166 23.3064C69.5566 23.4783 69.998 23.5642 70.4902 23.5642C71.0996 23.5642 71.666 23.447 72.1895 23.2126C72.7207 22.9705 73.1777 22.6072 73.5605 22.1228L75.2012 23.9041C74.9355 24.2869 74.5723 24.6541 74.1113 25.0056C73.6582 25.3572 73.1113 25.6462 72.4707 25.8728C71.8301 26.0916 71.0996 26.2009 70.2793 26.2009ZM84.248 23.1072V17.4587C84.248 17.0525 84.1816 16.7048 84.0488 16.4158C83.916 16.1189 83.709 15.8884 83.4277 15.7244C83.1543 15.5603 82.7988 15.4783 82.3613 15.4783C81.9863 15.4783 81.6621 15.5447 81.3887 15.6775C81.1152 15.8025 80.9043 15.9861 80.7559 16.2283C80.6074 16.4626 80.5332 16.74 80.5332 17.0603H77.1582C77.1582 16.5212 77.2832 16.0095 77.5332 15.5251C77.7832 15.0408 78.1465 14.615 78.623 14.2478C79.0996 13.8728 79.666 13.5798 80.3223 13.3689C80.9863 13.158 81.7285 13.0525 82.5488 13.0525C83.5332 13.0525 84.4082 13.2166 85.1738 13.5447C85.9395 13.8728 86.541 14.365 86.9785 15.0212C87.4238 15.6775 87.6465 16.4978 87.6465 17.4822V22.908C87.6465 23.6033 87.6895 24.1736 87.7754 24.6189C87.8613 25.0564 87.9863 25.4392 88.1504 25.7673V25.9666H84.7402C84.5762 25.6228 84.4512 25.1931 84.3652 24.6775C84.2871 24.1541 84.248 23.6306 84.248 23.1072ZM84.6934 18.2439L84.7168 20.1541H82.8301C82.3848 20.1541 81.998 20.2048 81.6699 20.3064C81.3418 20.408 81.0723 20.5525 80.8613 20.74C80.6504 20.9197 80.4941 21.1306 80.3926 21.3728C80.2988 21.615 80.252 21.8806 80.252 22.1697C80.252 22.4587 80.3184 22.7205 80.4512 22.9548C80.584 23.1814 80.7754 23.3611 81.0254 23.4939C81.2754 23.6189 81.5684 23.6814 81.9043 23.6814C82.4121 23.6814 82.8535 23.5798 83.2285 23.3767C83.6035 23.1736 83.8926 22.9236 84.0957 22.6267C84.3066 22.3298 84.416 22.0486 84.4238 21.783L85.3145 23.2126C85.1895 23.533 85.0176 23.865 84.7988 24.2087C84.5879 24.5525 84.3184 24.8767 83.9902 25.1814C83.6621 25.4783 83.2676 25.7244 82.8066 25.9197C82.3457 26.1072 81.7988 26.2009 81.166 26.2009C80.3613 26.2009 79.6309 26.0408 78.9746 25.7205C78.3262 25.3923 77.8105 24.9431 77.4277 24.3728C77.0527 23.7947 76.8652 23.1384 76.8652 22.4041C76.8652 21.74 76.9902 21.1501 77.2402 20.6345C77.4902 20.1189 77.8574 19.6853 78.3418 19.3337C78.834 18.9744 79.4473 18.7048 80.1816 18.5251C80.916 18.3376 81.7676 18.2439 82.7363 18.2439H84.6934ZM94.373 23.5056L97.1855 13.2869H100.713L96.4355 25.9666H94.3027L94.373 23.5056ZM92.4395 13.2869L95.2637 23.5173L95.3223 25.9666H93.1777L88.9004 13.2869H92.4395ZM105.986 24.5369L109.35 13.2869H112.971L107.873 27.8767C107.764 28.197 107.615 28.5408 107.428 28.908C107.248 29.2751 107.002 29.6228 106.689 29.9509C106.385 30.2869 105.998 30.5603 105.529 30.7712C105.068 30.9822 104.502 31.0876 103.83 31.0876C103.51 31.0876 103.248 31.0681 103.045 31.0291C102.842 30.99 102.6 30.9353 102.318 30.865V28.3923C102.404 28.3923 102.494 28.3923 102.588 28.3923C102.682 28.4001 102.771 28.4041 102.857 28.4041C103.303 28.4041 103.666 28.3533 103.947 28.2517C104.229 28.1501 104.455 27.9939 104.627 27.783C104.799 27.5798 104.936 27.3142 105.037 26.9861L105.986 24.5369ZM104.58 13.2869L107.334 22.4744L107.814 26.0486L105.518 26.2947L100.959 13.2869H104.58Z" fill="#0F172A"/>
</svg>
